<svg width="26" height="26" viewBox="0 0 26 26" fill="none" xmlns="http://www.w3.org/2000/svg">
<path d="M21.472 6.94011C21.6085 6.80084 21.7714 6.69021 21.9512 6.61468C22.131 6.53915 22.324 6.50024 22.519 6.50024C22.714 6.50024 22.907 6.53915 23.0868 6.61468C23.2666 6.69021 23.4295 6.80084 23.566 6.94011C24.138 7.51811 24.146 8.45211 23.586 9.04011L11.76 23.0201C11.6257 23.1676 11.4628 23.2861 11.2812 23.3684C11.0995 23.4507 10.903 23.495 10.7036 23.4988C10.5042 23.5025 10.3062 23.4656 10.1216 23.3901C9.93699 23.3147 9.76972 23.2024 9.63001 23.0601L2.43401 15.7681C2.15648 15.4851 2.00102 15.1045 2.00102 14.7081C2.00102 14.3117 2.15648 13.9311 2.43401 13.6481C2.5705 13.5088 2.7334 13.3982 2.91318 13.3227C3.09296 13.2471 3.286 13.2082 3.48101 13.2082C3.67601 13.2082 3.86905 13.2471 4.04883 13.3227C4.22861 13.3982 4.39151 13.5088 4.52801 13.6481L10.632 19.8341L21.432 6.98411L21.472 6.94011Z" fill="#00A52E"/>
</svg>
