<svg width="18" height="18" viewBox="0 0 18 18" fill="none" xmlns="http://www.w3.org/2000/svg">
<path d="M2.292 2.29208C2.38489 2.19895 2.49524 2.12507 2.61673 2.07465C2.73822 2.02424 2.86847 1.99829 3 1.99829C3.13154 1.99829 3.26178 2.02424 3.38327 2.07465C3.50476 2.12507 3.61511 2.19895 3.708 2.29208L9 7.58608L14.292 2.29208C14.385 2.1991 14.4954 2.12535 14.6168 2.07503C14.7383 2.02471 14.8685 1.99881 15 1.99881C15.1315 1.99881 15.2617 2.02471 15.3832 2.07503C15.5046 2.12535 15.615 2.1991 15.708 2.29208C15.801 2.38505 15.8747 2.49543 15.925 2.61691C15.9754 2.73839 16.0013 2.86859 16.0013 3.00008C16.0013 3.13157 15.9754 3.26177 15.925 3.38325C15.8747 3.50472 15.801 3.6151 15.708 3.70808L10.414 9.00008L15.708 14.2921C15.801 14.3851 15.8747 14.4954 15.925 14.6169C15.9754 14.7384 16.0013 14.8686 16.0013 15.0001C16.0013 15.1316 15.9754 15.2618 15.925 15.3832C15.8747 15.5047 15.801 15.6151 15.708 15.7081C15.615 15.8011 15.5046 15.8748 15.3832 15.9251C15.2617 15.9754 15.1315 16.0013 15 16.0013C14.8685 16.0013 14.7383 15.9754 14.6168 15.9251C14.4954 15.8748 14.385 15.8011 14.292 15.7081L9 10.4141L3.708 15.7081C3.61503 15.8011 3.50465 15.8748 3.38317 15.9251C3.26169 15.9754 3.13149 16.0013 3 16.0013C2.86851 16.0013 2.73831 15.9754 2.61683 15.9251C2.49536 15.8748 2.38498 15.8011 2.292 15.7081C2.19903 15.6151 2.12527 15.5047 2.07495 15.3832C2.02464 15.2618 1.99874 15.1316 1.99874 15.0001C1.99874 14.8686 2.02464 14.7384 2.07495 14.6169C2.12527 14.4954 2.19903 14.3851 2.292 14.2921L7.586 9.00008L2.292 3.70808C2.19888 3.61519 2.12499 3.50484 2.07458 3.38335C2.02416 3.26186 1.99821 3.13161 1.99821 3.00008C1.99821 2.86854 2.02416 2.7383 2.07458 2.61681C2.12499 2.49532 2.19888 2.38497 2.292 2.29208Z" fill="#FF0000"/>
</svg>
