<svg width="56" height="37" viewBox="0 0 56 37" fill="none" xmlns="http://www.w3.org/2000/svg">
<path d="M0.864 18.128C0.757333 18.096 0.682667 18.032 0.64 17.936C0.597333 17.8293 0.597333 17.7227 0.64 17.616L4.656 6.784C4.73067 6.61333 4.85867 6.528 5.04 6.528C5.22133 6.528 5.34933 6.61333 5.424 6.784L9.456 17.616C9.49867 17.7227 9.49333 17.8293 9.44 17.936C9.39733 18.032 9.32267 18.096 9.216 18.128C9.12 18.1707 9.01867 18.1653 8.912 18.112C8.816 18.0693 8.74667 17.9947 8.704 17.888L5.04 8.08L2.816 14.016H5.84C5.94667 14.016 6.03733 14.0587 6.112 14.144C6.18667 14.2187 6.224 14.3147 6.224 14.432C6.224 14.5387 6.18667 14.6293 6.112 14.704C6.03733 14.7787 5.94667 14.816 5.84 14.816H2.512L1.376 17.888C1.33333 17.9947 1.264 18.0693 1.168 18.112C1.072 18.1653 0.970667 18.1707 0.864 18.128ZM12.2381 21.552C12.1315 21.5093 12.0568 21.44 12.0141 21.344C11.9715 21.248 11.9715 21.152 12.0141 21.056L13.1981 18.048L10.6861 11.792C10.6435 11.696 10.6435 11.6 10.6861 11.504C10.7288 11.408 10.7981 11.3387 10.8941 11.296C10.9901 11.264 11.0861 11.2693 11.1821 11.312C11.2781 11.344 11.3475 11.4133 11.3901 11.52L13.6141 17.024L15.7901 11.52C15.8328 11.4133 15.8968 11.344 15.9821 11.312C16.0781 11.2693 16.1795 11.264 16.2861 11.296C16.3821 11.3387 16.4515 11.408 16.4941 11.504C16.5368 11.6 16.5368 11.696 16.4941 11.792L12.7181 21.344C12.6755 21.44 12.6061 21.504 12.5101 21.536C12.4248 21.5787 12.3341 21.584 12.2381 21.552ZM20.5494 18.208C20.3787 18.208 20.2614 18.128 20.1974 17.968L17.7174 11.808C17.6747 11.712 17.6747 11.616 17.7174 11.52C17.76 11.424 17.8294 11.3547 17.9254 11.312C18.0214 11.28 18.1174 11.2853 18.2134 11.328C18.3094 11.36 18.3787 11.424 18.4214 11.52L20.5494 16.816L22.7094 11.52C22.752 11.4133 22.8214 11.344 22.9174 11.312C23.0134 11.2693 23.1094 11.264 23.2054 11.296C23.2907 11.3387 23.3547 11.408 23.3974 11.504C23.4507 11.6 23.4507 11.696 23.3974 11.792L20.9174 17.968C20.8534 18.128 20.7307 18.208 20.5494 18.208ZM29.5595 18.224C29.4528 18.224 29.3622 18.1867 29.2875 18.112C29.2128 18.048 29.1755 17.9627 29.1755 17.856V17.728L27.2075 18.112C26.7168 18.208 26.3008 18.2347 25.9595 18.192C25.6182 18.1493 25.3302 18.0427 25.0955 17.872C24.9248 17.7333 24.7862 17.5627 24.6795 17.36C24.5835 17.1467 24.5248 16.9067 24.5035 16.64C24.4395 16.0213 24.5728 15.5147 24.9035 15.12C25.2448 14.7147 25.7675 14.4533 26.4715 14.336L29.1755 13.872V13.424C29.1755 13.2107 29.1382 12.9867 29.0635 12.752C28.9995 12.5067 28.8608 12.3253 28.6475 12.208C28.4768 12.1013 28.2582 12.048 27.9915 12.048C27.3302 12.048 26.5142 12.3467 25.5435 12.944C25.4475 12.9973 25.3515 13.0133 25.2555 12.992C25.1595 12.96 25.0848 12.9013 25.0315 12.816C24.9675 12.72 24.9462 12.624 24.9675 12.528C24.9995 12.4213 25.0582 12.3467 25.1435 12.304C25.7728 11.92 26.3222 11.6587 26.7915 11.52C27.2608 11.3707 27.6608 11.296 27.9915 11.296C28.2155 11.296 28.4075 11.3227 28.5675 11.376C28.7382 11.4187 28.8822 11.472 28.9995 11.536C29.3088 11.7067 29.5435 11.9573 29.7035 12.288C29.8635 12.608 29.9435 12.9867 29.9435 13.424V17.856C29.9435 17.9627 29.9062 18.048 29.8315 18.112C29.7675 18.1867 29.6768 18.224 29.5595 18.224ZM27.0795 17.344L29.1755 16.96V14.64L26.6155 15.072C26.1782 15.1467 25.8582 15.2693 25.6555 15.44C25.4635 15.6107 25.3462 15.7973 25.3035 16C25.2608 16.192 25.2448 16.3787 25.2555 16.56C25.2875 16.8907 25.3888 17.12 25.5595 17.248C25.8155 17.44 26.3222 17.472 27.0795 17.344ZM31.9954 18C31.846 18 31.7287 17.9307 31.6434 17.792C31.6327 17.76 31.622 17.7333 31.6114 17.712C31.6114 17.68 31.6114 17.648 31.6114 17.616C31.6114 17.5307 31.6434 17.4507 31.7074 17.376C32.5607 16.3307 33.2594 15.4773 33.8034 14.816C34.358 14.144 34.7847 13.6213 35.0834 13.248C35.3927 12.8747 35.606 12.6187 35.7234 12.48C35.8407 12.3307 35.8994 12.256 35.8994 12.256H32.2834C32.1767 12.256 32.086 12.2187 32.0114 12.144C31.9367 12.0693 31.8994 11.9787 31.8994 11.872C31.8994 11.7653 31.9367 11.68 32.0114 11.616C32.086 11.5413 32.1767 11.504 32.2834 11.504H36.6994C36.87 11.504 36.9874 11.5733 37.0514 11.712C37.0727 11.7547 37.0834 11.808 37.0834 11.872C37.0834 11.9787 37.0567 12.0587 37.0034 12.112C36.15 13.1467 35.446 14 34.8914 14.672C34.3474 15.3333 33.9207 15.856 33.6114 16.24C33.3127 16.6133 33.0994 16.8747 32.9714 17.024C32.854 17.1733 32.7954 17.248 32.7954 17.248H36.5554C36.6727 17.248 36.7634 17.2853 36.8274 17.36C36.902 17.424 36.9394 17.5093 36.9394 17.616C36.9394 17.7227 36.902 17.8133 36.8274 17.888C36.7634 17.9627 36.6727 18 36.5554 18H31.9954Z" fill="white"/>
<path d="M2.76562 31H1.10938V20.4531C1.94271 20.4219 2.875 20.4062 3.90625 20.4062C4.67708 20.4062 5.35417 20.5417 5.9375 20.8125C7.03125 21.3333 7.57812 22.2344 7.57812 23.5156C7.57812 24.2031 7.42188 24.8125 7.10938 25.3438C6.49479 26.4062 5.44271 26.9375 3.95312 26.9375H2.76562V31ZM3.89062 21.7812C3.61979 21.7812 3.24479 21.7917 2.76562 21.8125V25.5469H3.9375C4.14583 25.5469 4.34896 25.526 4.54688 25.4844C5.43229 25.2969 5.875 24.7083 5.875 23.7188C5.86458 22.4479 5.20312 21.8021 3.89062 21.7812ZM13.7969 31.2031C12.9844 31.1927 12.4896 30.8177 12.3125 30.0781C12.2708 30.1406 12.224 30.2083 12.1719 30.2812C11.7135 30.8958 11.0885 31.2031 10.2969 31.2031C9.84896 31.2031 9.4375 31.099 9.0625 30.8906C8.3125 30.474 7.9375 29.7708 7.9375 28.7812C7.9375 28.3229 8.05729 27.9115 8.29688 27.5469C8.83854 26.7344 9.83333 26.3281 11.2812 26.3281C11.4167 26.3281 11.6615 26.3385 12.0156 26.3594V25.6875C11.974 24.8854 11.5417 24.4427 10.7188 24.3594C10.1771 24.3594 9.52604 24.5729 8.76562 25L8.20312 23.8125C8.22396 23.8021 8.24479 23.7865 8.26562 23.7656C9.14062 23.2552 10.0729 23 11.0625 23C11.4688 23 11.8385 23.0625 12.1719 23.1875C13.151 23.5521 13.6406 24.3646 13.6406 25.625V29.0625C13.6406 29.1771 13.6458 29.2812 13.6562 29.375C13.7083 29.75 13.9115 29.9375 14.2656 29.9375C14.349 29.9375 14.4219 29.9323 14.4844 29.9219L14.5469 31.1094C14.276 31.1719 14.026 31.2031 13.7969 31.2031ZM10.6562 29.8906C10.7396 29.8906 10.8229 29.8854 10.9062 29.875C11.6458 29.75 12.0156 29.1667 12.0156 28.125V27.4375C11.8802 27.4271 11.6615 27.4219 11.3594 27.4219C10.2031 27.4323 9.61458 27.8854 9.59375 28.7812C9.59375 28.9167 9.60938 29.0417 9.64062 29.1562C9.77604 29.6458 10.1146 29.8906 10.6562 29.8906ZM22.2812 29.9219L22.3438 31.1094C22.0938 31.1615 21.8698 31.1875 21.6719 31.1875C20.6094 31.1771 20.0677 30.5833 20.0469 29.4062V25.8594C20.0469 25.651 20.026 25.4583 19.9844 25.2812C19.8385 24.6146 19.4792 24.2812 18.9062 24.2812C18.6875 24.2812 18.474 24.3385 18.2656 24.4531C17.6094 24.8281 17.2812 25.6302 17.2812 26.8594V31H15.6562V23.1875H17.2188L17.25 24.2656C17.7604 23.4219 18.474 22.9948 19.3906 22.9844C19.7656 22.9844 20.1094 23.0573 20.4219 23.2031C21.2552 23.6094 21.6719 24.4375 21.6719 25.6875V29.2969C21.6719 29.3802 21.6771 29.4583 21.6875 29.5312C21.7292 29.8438 21.9271 29.974 22.2812 29.9219ZM28.4062 28.7812C28.4062 29.3542 28.2396 29.849 27.9062 30.2656C27.3854 30.8906 26.6406 31.2031 25.6719 31.2031C24.7344 31.2031 23.8854 30.9062 23.125 30.3125L23.7344 29.3281C24.3281 29.724 24.9531 29.9271 25.6094 29.9375C25.7552 29.9375 25.8958 29.9219 26.0312 29.8906C26.5417 29.7448 26.7969 29.4115 26.7969 28.8906C26.7969 28.7135 26.7448 28.5469 26.6406 28.3906C26.4844 28.1615 26.0833 27.901 25.4375 27.6094C25.0833 27.4427 24.8229 27.3125 24.6562 27.2188C23.8125 26.7292 23.3906 26.0521 23.3906 25.1875C23.3906 24.6562 23.5781 24.1927 23.9531 23.7969C24.474 23.2552 25.1615 22.9844 26.0156 22.9844C26.1615 22.9844 26.3125 22.9948 26.4688 23.0156C27.4167 23.1406 28.0729 23.5833 28.4375 24.3438L27.375 24.9688C27.3542 24.9375 27.3281 24.8958 27.2969 24.8438C27.0052 24.4271 26.5885 24.2188 26.0469 24.2188C25.9219 24.2188 25.7969 24.2344 25.6719 24.2656C25.224 24.401 25 24.6979 25 25.1562C25 25.3229 25.0521 25.4844 25.1562 25.6406C25.3125 25.8594 25.7135 26.1198 26.3594 26.4219C26.7135 26.5781 26.974 26.7031 27.1406 26.7969C27.9844 27.2865 28.4062 27.9479 28.4062 28.7812ZM31.5938 31H29.9688V23.1875H31.5938V31ZM31.8438 20.9062C31.8438 21.0938 31.8125 21.2708 31.75 21.4375C31.5729 21.8542 31.25 22.0625 30.7812 22.0625C30.6562 22.0625 30.5312 22.0417 30.4062 22C29.9688 21.8333 29.75 21.4688 29.75 20.9062C29.75 20.7396 29.7812 20.5781 29.8438 20.4219C30.0104 20.0052 30.3281 19.7969 30.7969 19.7969C30.9219 19.7969 31.0521 19.8177 31.1875 19.8594C31.625 20.026 31.8438 20.375 31.8438 20.9062ZM38 23.1875H39.5938L36.5469 31.7031C36.5156 31.8073 36.4792 31.9115 36.4375 32.0156C35.8125 33.5677 34.9323 34.3438 33.7969 34.3438C33.2969 34.3438 32.7135 34.1979 32.0469 33.9062L32.5312 32.7188C32.9896 32.9062 33.3802 33.0052 33.7031 33.0156C33.9427 33.0156 34.1458 32.9531 34.3125 32.8281C34.6458 32.599 34.9948 31.9792 35.3594 30.9688L32.5938 23.1875H34.2344L36.1562 29.0469L38 23.1875ZM43.3281 29.875C43.5677 29.875 43.7917 29.8281 44 29.7344C44.7292 29.3802 45.0938 28.5104 45.0938 27.125C45.0938 26.6458 45.0469 26.2188 44.9531 25.8438C44.7031 24.8229 44.1719 24.3125 43.3594 24.3125C43.099 24.3125 42.8542 24.375 42.625 24.5C41.9271 24.8854 41.5781 25.75 41.5781 27.0938C41.5781 27.5938 41.6302 28.0417 41.7344 28.4375C42.0052 29.3958 42.5365 29.875 43.3281 29.875ZM43.3906 22.9844C44.0573 22.9844 44.6406 23.1302 45.1406 23.4219C46.2135 24.0677 46.75 25.2917 46.75 27.0938C46.75 27.9792 46.599 28.7448 46.2969 29.3906C45.7135 30.599 44.7031 31.2031 43.2656 31.2031C42.5677 31.2031 41.9635 31.0417 41.4531 30.7188C40.4219 30.0521 39.9062 28.8542 39.9062 27.125C39.9062 26.1771 40.0885 25.3594 40.4531 24.6719C41.0677 23.5469 42.0469 22.9844 43.3906 22.9844ZM54.875 29.9219L54.9375 31.1094C54.6875 31.1615 54.4635 31.1875 54.2656 31.1875C53.2031 31.1771 52.6615 30.5833 52.6406 29.4062V25.8594C52.6406 25.651 52.6198 25.4583 52.5781 25.2812C52.4323 24.6146 52.0729 24.2812 51.5 24.2812C51.2812 24.2812 51.0677 24.3385 50.8594 24.4531C50.2031 24.8281 49.875 25.6302 49.875 26.8594V31H48.25V23.1875H49.8125L49.8438 24.2656C50.3542 23.4219 51.0677 22.9948 51.9844 22.9844C52.3594 22.9844 52.7031 23.0573 53.0156 23.2031C53.849 23.6094 54.2656 24.4375 54.2656 25.6875V29.2969C54.2656 29.3802 54.2708 29.4583 54.2812 29.5312C54.3229 29.8438 54.5208 29.974 54.875 29.9219Z" fill="white"/>
</svg>
