<svg width="77" height="19" viewBox="0 0 77 19" fill="none" xmlns="http://www.w3.org/2000/svg">
<path d="M0.768 14V2.8H5.328C5.85067 2.992 6.31467 3.328 6.72 3.808C7.12533 4.288 7.328 4.86933 7.328 5.552C7.328 6.75733 6.93333 7.6 6.144 8.08V8.144C7.12533 8.688 7.616 9.54133 7.616 10.704C7.616 12.0373 6.93867 13.136 5.584 14H0.768ZM2.944 7.424H4.528C4.99733 7.136 5.232 6.69867 5.232 6.112C5.232 5.52533 5.01333 5.06133 4.576 4.72H2.944V7.424ZM2.944 12.144H4.592C4.784 12.0053 4.95467 11.7867 5.104 11.488C5.264 11.1893 5.344 10.8907 5.344 10.592C5.344 10.2933 5.28 10.0213 5.152 9.776C5.024 9.53067 4.864 9.34933 4.672 9.232H2.944V12.144ZM12.3996 7.504H11.1996C11.0396 7.696 10.9063 7.96267 10.7996 8.304C10.7036 8.64533 10.6556 8.976 10.6556 9.296H12.9436C12.965 8.976 12.9223 8.64533 12.8156 8.304C12.709 7.952 12.5703 7.68533 12.3996 7.504ZM14.5756 12.32V14H10.5116C9.76496 13.4987 9.23696 12.88 8.92763 12.144C8.62896 11.3973 8.47963 10.6453 8.47963 9.888C8.47963 8.13867 9.14096 6.784 10.4636 5.824H13.0556C13.7703 6.34667 14.2556 6.90133 14.5116 7.488C14.7676 8.07467 14.8956 8.66667 14.8956 9.264C14.8956 9.86133 14.8476 10.3733 14.7516 10.8H10.7676C10.7996 11.0453 10.8903 11.328 11.0396 11.648C11.1996 11.9573 11.3703 12.1813 11.5516 12.32H14.5756ZM15.9853 14V5.824H17.5053L17.9053 6.688C18.3319 6.112 18.8706 5.824 19.5213 5.824H20.1453V7.968H18.1133V14H15.9853ZM24.4621 7.504H23.2621C23.1021 7.696 22.9688 7.96267 22.8621 8.304C22.7661 8.64533 22.7181 8.976 22.7181 9.296H25.0061C25.0275 8.976 24.9848 8.64533 24.8781 8.304C24.7715 7.952 24.6328 7.68533 24.4621 7.504ZM26.6381 12.32V14H22.5741C21.8275 13.4987 21.2995 12.88 20.9901 12.144C20.6915 11.3973 20.5421 10.6453 20.5421 9.888C20.5421 8.13867 21.2035 6.784 22.5261 5.824H25.1181C25.8328 6.34667 26.3181 6.90133 26.5741 7.488C26.8301 8.07467 26.9581 8.66667 26.9581 9.264C26.9581 9.86133 26.9101 10.3733 26.8141 10.8H22.8301C22.8621 11.0453 22.9528 11.328 23.1021 11.648C23.2621 11.9573 23.4328 12.1813 23.6141 12.32H26.6381ZM31.5838 5.824H32.7198L33.1198 6.384C33.3438 6.18133 33.5571 6.03733 33.7598 5.952C33.9731 5.86667 34.2878 5.824 34.7038 5.824H36.4798C36.9491 6.42133 37.2691 7.01867 37.4398 7.616C37.6104 8.21333 37.6958 8.96 37.6958 9.856V14H35.5677V9.696C35.5677 8.71467 35.4184 7.984 35.1198 7.504H33.5838C33.8184 7.96267 33.9358 8.58667 33.9358 9.376V14H31.8078V9.696C31.8078 8.68267 31.6691 7.952 31.3918 7.504H30.1598V14H28.0318V5.824H29.6957L29.9838 6.4C30.2184 6.18667 30.4371 6.03733 30.6398 5.952C30.8531 5.86667 31.1678 5.824 31.5838 5.824ZM41.643 2.8H43.835V14H41.643V2.8ZM41.675 0.159999V2.32H43.787V0.159999H41.675ZM48.8494 5.824H50.5454C51.0147 6.42133 51.3347 7.01867 51.5054 7.616C51.676 8.21333 51.7614 8.96 51.7614 9.856V14H49.6334V9.696C49.6334 8.68267 49.4947 7.952 49.2174 7.504H47.4254V14H45.2974V5.824H46.9614L47.2494 6.4C47.484 6.18667 47.7027 6.03733 47.9054 5.952C48.1187 5.86667 48.4334 5.824 48.8494 5.824ZM54.4386 16.112H54.0386V14.96L54.4546 14H52.7106V12.32H55.6386L53.9266 9.808C53.852 9.69067 53.7346 9.52533 53.5746 9.312C53.4253 9.09867 53.308 8.928 53.2226 8.8C53.1373 8.66133 53.0786 8.56 53.0466 8.496C53.0146 8.432 52.972 8.352 52.9186 8.256C52.8653 8.14933 52.828 8.05867 52.8066 7.984C52.764 7.78133 52.7426 7.616 52.7426 7.488C52.7426 6.70933 53.1213 6.15467 53.8786 5.824H57.4146V7.504H54.9186L56.4386 9.76C57.1213 10.7307 57.5 11.3973 57.5746 11.76C57.6173 11.9307 57.6386 12.1067 57.6386 12.288C57.6386 13.0453 57.356 13.616 56.7906 14H55.8146L55.4466 14.96C55.6066 15.0987 55.724 15.216 55.7986 15.312C56.0333 15.5893 56.1506 15.9307 56.1506 16.336C56.1506 16.7413 56.0546 17.0987 55.8626 17.408C55.6706 17.7173 55.4253 17.968 55.1266 18.16H53.7186V16.864H54.4386C54.5346 16.8 54.5826 16.6773 54.5826 16.496C54.5933 16.3147 54.5453 16.1867 54.4386 16.112ZM62.3721 10.304H60.6601C60.4361 10.5813 60.3241 10.928 60.3241 11.344C60.3241 11.76 60.4415 12.0853 60.6761 12.32H62.3721V10.304ZM58.9321 5.824H62.9001C63.5401 6.208 63.9615 6.65067 64.1641 7.152C64.3668 7.64267 64.4681 8.31467 64.4681 9.168V11.568C64.4681 12.4533 64.4895 13.264 64.5321 14H62.7081L62.4201 13.424C62.0041 13.808 61.4175 14 60.6601 14H59.6521C58.7455 13.4027 58.2921 12.544 58.2921 11.424C58.2921 10.2933 58.7561 9.40267 59.6841 8.752H61.1881C61.6041 8.752 61.9935 8.88 62.3561 9.136V8.336C62.3561 7.92 62.1748 7.64267 61.8121 7.504H58.9321V5.824ZM69.7003 10.304H67.9883C67.7643 10.5813 67.6523 10.928 67.6523 11.344C67.6523 11.76 67.7696 12.0853 68.0043 12.32H69.7003V10.304ZM66.2603 5.824H70.2283C70.8683 6.208 71.2896 6.65067 71.4923 7.152C71.6949 7.64267 71.7963 8.31467 71.7963 9.168V11.568C71.7963 12.4533 71.8176 13.264 71.8603 14H70.0363L69.7483 13.424C69.3323 13.808 68.7456 14 67.9883 14H66.9803C66.0736 13.4027 65.6203 12.544 65.6203 11.424C65.6203 10.2933 66.0843 9.40267 67.0123 8.752H68.5163C68.9323 8.752 69.3216 8.88 69.6843 9.136V8.336C69.6843 7.92 69.5029 7.64267 69.1403 7.504H66.2603V5.824ZM73.4024 10.432V7.504H72.2984V5.824H73.4024V3.6H75.5304V5.824H76.8424V7.504H75.5304V10.944C75.5304 11.5947 75.6424 12.0533 75.8664 12.32H76.8424V14H74.5704C74.005 13.4773 73.6637 12.912 73.5464 12.304C73.4504 11.792 73.4024 11.168 73.4024 10.432Z" fill="white"/>
</svg>
