<svg width="60" height="39" viewBox="0 0 60 39" fill="none" xmlns="http://www.w3.org/2000/svg">
<path d="M2.86725 6.736C2.24858 6.82133 1.73658 6.864 1.33125 6.864C1.19258 6.864 1.12325 6.81067 1.12325 6.704C1.12325 6.45867 1.28858 6.20267 1.61925 5.936C1.96058 5.65867 2.50992 5.41867 3.26725 5.216C3.60858 4 3.99792 2.88533 4.43525 1.872C3.36858 1.92533 2.49392 2.27733 1.81125 2.928C1.64058 3.09867 1.50192 3.232 1.39525 3.328C1.28858 3.424 1.19258 3.472 1.10725 3.472C1.03258 3.472 0.957917 3.408 0.88325 3.28C0.808583 3.152 0.77125 2.98133 0.77125 2.768C0.781917 1.94667 1.33658 1.28 2.43525 0.768C3.53392 0.255999 4.88858 0.00533263 6.49925 0.0159998L11.2993 0.0959997C11.5873 0.0959997 11.7313 0.208 11.7313 0.431999C11.7313 0.496 11.6886 0.613333 11.6033 0.783999C11.5179 0.943999 11.4433 1.12 11.3793 1.312C11.2406 1.696 10.9419 1.888 10.4833 1.888H9.97125L7.84325 1.872H6.61125C6.52592 2.48 6.26992 3.472 5.84325 4.848L8.77125 4.896C8.94192 4.896 9.02725 4.99733 9.02725 5.2C9.02725 5.264 9.00058 5.376 8.94725 5.536C8.89392 5.696 8.84592 5.86133 8.80325 6.032C8.71792 6.384 8.53658 6.56 8.25925 6.56L5.82725 6.448H5.61925C5.55525 6.448 5.48058 6.45333 5.39525 6.464C4.84058 8.50133 4.56325 10.112 4.56325 11.296C4.56325 11.9253 3.94992 12.24 2.72325 12.24C2.45658 12.24 2.29658 12.1067 2.24325 11.84C2.20058 11.5627 2.17925 11.2 2.17925 10.752C2.17925 9.792 2.40858 8.45333 2.86725 6.736ZM19.3196 8.224C19.5116 8.224 19.6076 8.46933 19.6076 8.96C19.6076 9.22667 19.4956 9.552 19.2716 9.936C19.0476 10.3093 18.7543 10.656 18.3916 10.976C18.0396 11.2853 17.645 11.5413 17.2076 11.744C16.7703 11.9467 16.3436 12.048 15.9276 12.048C15.3623 12.048 14.9836 11.552 14.7916 10.56C14.5143 11.0187 14.1516 11.3973 13.7036 11.696C13.2556 11.984 12.653 12.128 11.8956 12.128C11.149 12.128 10.5463 11.8933 10.0876 11.424C9.62896 10.9547 9.40496 10.384 9.41563 9.712C9.41563 7.89867 10.0183 6.46933 11.2236 5.424C11.7356 4.98667 12.2103 4.69867 12.6476 4.56C13.0956 4.42133 13.565 4.352 14.0556 4.352C14.5463 4.352 14.9463 4.43733 15.2556 4.608C15.405 4.29867 15.5756 4.144 15.7676 4.144C16.141 4.144 16.493 4.30933 16.8236 4.64C17.165 4.96 17.3356 5.264 17.3356 5.552C17.1863 5.904 16.9676 6.32533 16.6796 6.816C16.5943 7.30667 16.5516 7.99467 16.5516 8.88C16.5516 9.76533 16.6636 10.208 16.8876 10.208C17.165 10.208 17.837 9.65333 18.9036 8.544C19.0956 8.33067 19.2343 8.224 19.3196 8.224ZM11.7676 9.184C11.7676 10.0053 12.0716 10.416 12.6796 10.416C13.3303 10.4053 13.869 10.0587 14.2956 9.376C14.445 9.14133 14.5676 8.85333 14.6636 8.512C14.6636 7.31733 14.7703 6.29333 14.9836 5.44C14.1196 5.61067 13.3676 6.02667 12.7276 6.688C12.0876 7.34933 11.7676 8.18133 11.7676 9.184ZM22.3761 12.048C20.8508 12.0587 19.8108 11.488 19.2561 10.336C19.0641 9.93067 18.9681 9.424 18.9681 8.816C18.9681 8.19733 19.0215 7.54133 19.1281 6.848C19.3415 5.46133 19.7521 4.18133 20.3601 3.008C20.6695 2.41067 21.0161 1.89867 21.4001 1.472C22.2428 0.533333 23.1815 0.0693324 24.2161 0.079999C24.6748 0.079999 25.0321 0.207999 25.2881 0.464C25.5548 0.709333 25.6881 1.06667 25.6881 1.536C25.6881 2.00533 25.5495 2.48 25.2721 2.96C24.9948 3.42933 24.6375 3.92 24.2001 4.432C23.7735 4.93333 23.2988 5.46133 22.7761 6.016C22.2535 6.57067 21.7415 7.17333 21.2401 7.824V8.464C21.2401 9.06133 21.3681 9.49867 21.6241 9.776C21.8801 10.0533 22.1788 10.192 22.5201 10.192C23.4375 10.192 24.2481 9.73867 24.9521 8.832C25.2401 8.45867 25.4588 8.272 25.6081 8.272C25.7575 8.272 25.8321 8.45333 25.8321 8.816C25.8321 9.17867 25.7308 9.552 25.5281 9.936C25.3361 10.3093 25.0801 10.656 24.7601 10.976C24.4401 11.2853 24.0721 11.5413 23.6561 11.744C23.2401 11.9467 22.8135 12.048 22.3761 12.048ZM23.2401 3.456C23.4641 3.17867 23.6401 2.928 23.7681 2.704C23.8961 2.48 23.9601 2.25067 23.9601 2.016C23.9601 1.77067 23.8748 1.648 23.7041 1.648C23.3308 1.648 22.9148 2.032 22.4561 2.8C22.0081 3.568 21.6721 4.576 21.4481 5.824C21.8108 5.26933 22.1415 4.80533 22.4401 4.432C22.7495 4.05867 23.0161 3.73333 23.2401 3.456ZM34.7103 8.224C34.9023 8.224 34.9983 8.46933 34.9983 8.96C34.9983 9.22667 34.8863 9.552 34.6623 9.936C34.4383 10.3093 34.1449 10.656 33.7823 10.976C33.4303 11.2853 33.0356 11.5413 32.5983 11.744C32.1609 11.9467 31.7343 12.048 31.3183 12.048C30.7529 12.048 30.3743 11.552 30.1823 10.56C29.9049 11.0187 29.5423 11.3973 29.0943 11.696C28.6463 11.984 28.0436 12.128 27.2863 12.128C26.5396 12.128 25.9369 11.8933 25.4783 11.424C25.0196 10.9547 24.7956 10.384 24.8063 9.712C24.8063 7.89867 25.4089 6.46933 26.6143 5.424C27.1263 4.98667 27.6009 4.69867 28.0383 4.56C28.4863 4.42133 28.9556 4.352 29.4463 4.352C29.9369 4.352 30.3369 4.43733 30.6463 4.608C30.7956 4.29867 30.9663 4.144 31.1583 4.144C31.5316 4.144 31.8836 4.30933 32.2143 4.64C32.5556 4.96 32.7263 5.264 32.7263 5.552C32.5769 5.904 32.3583 6.32533 32.0703 6.816C31.9849 7.30667 31.9423 7.99467 31.9423 8.88C31.9423 9.76533 32.0543 10.208 32.2783 10.208C32.5556 10.208 33.2276 9.65333 34.2943 8.544C34.4863 8.33067 34.6249 8.224 34.7103 8.224ZM27.1583 9.184C27.1583 10.0053 27.4623 10.416 28.0703 10.416C28.7209 10.4053 29.2596 10.0587 29.6863 9.376C29.8356 9.14133 29.9583 8.85333 30.0543 8.512C30.0543 7.31733 30.1609 6.29333 30.3743 5.44C29.5103 5.61067 28.7583 6.02667 28.1183 6.688C27.4783 7.34933 27.1583 8.18133 27.1583 9.184ZM36.3268 4.016C36.7108 4.016 37.0734 4.384 37.4148 5.12C37.9161 4.59733 38.5348 4.336 39.2708 4.336C40.0174 4.336 40.5774 4.50133 40.9508 4.832C41.3241 5.152 41.5108 5.61067 41.5108 6.208C41.5108 6.79467 41.4308 7.392 41.2708 8C41.1214 8.608 41.0094 9.04533 40.9348 9.312C40.8708 9.568 40.8388 9.78133 40.8388 9.952C40.8388 10.1227 40.8974 10.208 41.0148 10.208C41.1748 10.208 41.3721 10.1067 41.6068 9.904C41.8414 9.70133 42.0761 9.48267 42.3108 9.248C42.5454 9.00267 42.7588 8.77867 42.9508 8.576C43.1534 8.37333 43.2921 8.272 43.3668 8.272C43.5161 8.272 43.5908 8.45333 43.5908 8.816C43.5908 9.56267 43.2228 10.2827 42.4868 10.976C41.2494 11.7013 40.4601 12.064 40.1188 12.064C40.0868 12.064 40.0654 12.0587 40.0548 12.048C39.2014 12.048 38.7748 11.3653 38.7748 10C38.7748 9.41333 38.8281 8.87467 38.9348 8.384C39.0521 7.89333 39.1374 7.536 39.1908 7.312C39.2441 7.088 39.2708 6.85867 39.2708 6.624C39.2708 6.24 39.0468 6.048 38.5988 6.048C38.1614 6.048 37.7401 6.37867 37.3348 7.04C36.9401 7.69067 36.6734 8.368 36.5348 9.072V9.184C36.5348 9.54667 36.5881 9.92 36.6948 10.304C36.8121 10.688 36.8708 10.9547 36.8708 11.104C36.8708 11.4667 36.4174 11.824 35.5108 12.176C35.3721 12.2293 35.2494 12.256 35.1428 12.256C34.8761 12.256 34.6894 12.1173 34.5828 11.84C34.4868 11.5627 34.4388 11.1307 34.4388 10.544C34.4388 9.02933 34.4974 7.936 34.6148 7.264C34.7748 6.26133 35.1374 5.328 35.7028 4.464C35.8948 4.16533 36.1028 4.016 36.3268 4.016ZM49.1445 8.224C49.3365 8.224 49.4325 8.38933 49.4325 8.72C49.4325 9.04 49.3472 9.38667 49.1765 9.76C49.0165 10.1333 48.7658 10.496 48.4245 10.848C48.0938 11.1893 47.6672 11.4827 47.1445 11.728C46.6218 11.9733 46.0032 12.096 45.2885 12.096C44.5845 12.096 43.9658 11.888 43.4325 11.472C42.8992 11.0453 42.6325 10.4373 42.6325 9.648C42.6325 8.848 42.7552 8.128 43.0005 7.488C43.2565 6.83733 43.5872 6.27733 43.9925 5.808C44.4085 5.33867 44.8778 4.976 45.4005 4.72C45.9232 4.45333 46.4192 4.32 46.8885 4.32C47.7098 4.32 48.1205 4.64533 48.1205 5.296C48.1205 5.66933 48.0405 5.968 47.8805 6.192C47.7312 6.416 47.5765 6.528 47.4165 6.528C47.2032 6.528 47.0165 6.45333 46.8565 6.304C46.6965 6.15467 46.5205 6.08 46.3285 6.08C46.1365 6.06933 45.9498 6.16 45.7685 6.352C45.5978 6.544 45.4538 6.78933 45.3365 7.088C45.1018 7.68533 44.9845 8.384 44.9845 9.184C44.9952 9.568 45.1712 9.856 45.5125 10.048C45.7472 10.176 46.0245 10.2453 46.3445 10.256C46.6645 10.256 46.9685 10.1493 47.2565 9.936C47.5552 9.72267 47.8272 9.49333 48.0725 9.248C48.3178 8.992 48.5312 8.75733 48.7125 8.544C48.9045 8.33067 49.0485 8.224 49.1445 8.224ZM58.4603 8.224C58.6523 8.224 58.7483 8.46933 58.7483 8.96C58.7483 9.22667 58.6363 9.552 58.4123 9.936C58.1883 10.3093 57.8949 10.656 57.5323 10.976C57.1803 11.2853 56.7856 11.5413 56.3483 11.744C55.9109 11.9467 55.4843 12.048 55.0683 12.048C54.5029 12.048 54.1243 11.552 53.9323 10.56C53.6549 11.0187 53.2923 11.3973 52.8443 11.696C52.3963 11.984 51.7936 12.128 51.0363 12.128C50.2896 12.128 49.6869 11.8933 49.2283 11.424C48.7696 10.9547 48.5456 10.384 48.5563 9.712C48.5563 7.89867 49.1589 6.46933 50.3643 5.424C50.8763 4.98667 51.3509 4.69867 51.7883 4.56C52.2363 4.42133 52.7056 4.352 53.1963 4.352C53.6869 4.352 54.0869 4.43733 54.3963 4.608C54.5456 4.29867 54.7163 4.144 54.9083 4.144C55.2816 4.144 55.6336 4.30933 55.9643 4.64C56.3056 4.96 56.4763 5.264 56.4763 5.552C56.3269 5.904 56.1083 6.32533 55.8203 6.816C55.7349 7.30667 55.6923 7.99467 55.6923 8.88C55.6923 9.76533 55.8043 10.208 56.0283 10.208C56.3056 10.208 56.9776 9.65333 58.0443 8.544C58.2363 8.33067 58.3749 8.224 58.4603 8.224ZM50.9083 9.184C50.9083 10.0053 51.2123 10.416 51.8203 10.416C52.4709 10.4053 53.0096 10.0587 53.4363 9.376C53.5856 9.14133 53.7083 8.85333 53.8043 8.512C53.8043 7.31733 53.9109 6.29333 54.1243 5.44C53.2603 5.61067 52.5083 6.02667 51.8683 6.688C51.2283 7.34933 50.9083 8.18133 50.9083 9.184ZM5.23944 27.328C6.3701 27.328 7.41544 27.3387 8.37544 27.36C8.87677 25.3333 9.36744 23.9253 9.84744 23.136C10.1674 22.6773 10.4874 22.3467 10.8074 22.144C10.9354 22.0587 11.0634 22.016 11.1914 22.016C11.3301 22.016 11.3994 22.224 11.3994 22.64C11.3994 23.056 11.3621 23.4933 11.2874 23.952C11.2234 24.4107 11.1381 24.9387 11.0314 25.536C10.6794 27.4987 10.4128 29.0667 10.2314 30.24C10.0608 31.4133 9.97544 32.544 9.97544 33.632C9.97544 33.9307 9.7621 34.08 9.33544 34.08C8.66344 34.08 8.20477 33.952 7.95944 33.696C7.7141 33.4293 7.59144 32.9547 7.59144 32.272C7.59144 31.5787 7.7301 30.4907 8.00744 29.008C6.8341 28.9547 6.09277 28.928 5.78344 28.928H5.12744C5.0101 28.928 4.89277 28.9333 4.77544 28.944C4.29544 30.7787 4.05544 32.2293 4.05544 33.296C4.05544 33.9253 3.4421 34.24 2.21544 34.24C1.94877 34.24 1.78877 34.1067 1.73544 33.84C1.69277 33.5627 1.67144 33.12 1.67144 32.512C1.67144 31.8933 1.86344 30.7893 2.24744 29.2C1.59677 29.296 1.1221 29.344 0.823438 29.344C0.684771 29.344 0.615438 29.2907 0.615438 29.184C0.615438 28.9493 0.786104 28.6827 1.12744 28.384C1.47944 28.0853 1.99144 27.8453 2.66344 27.664C3.0581 26.2987 3.45277 25.1787 3.84744 24.304C2.69544 24.3253 1.84744 24.5493 1.30344 24.976C1.13277 25.104 0.994104 25.2213 0.887438 25.328C0.780771 25.424 0.684771 25.472 0.599438 25.472C0.524771 25.472 0.450104 25.408 0.375438 25.28C0.300771 25.152 0.263438 24.9813 0.263438 24.768C0.263438 23.9893 0.919438 23.3973 2.23144 22.992C3.27677 22.672 4.49277 22.5067 5.87944 22.496H5.91144C5.9861 22.496 6.08744 22.5387 6.21544 22.624C6.3541 22.7093 6.42344 22.848 6.42344 23.04C6.42344 23.232 6.3861 23.4507 6.31144 23.696C6.24744 23.9307 6.15677 24.1067 6.03944 24.224C5.97544 24.7253 5.70877 25.76 5.23944 27.328ZM18.4206 32.64C17.5779 33.632 16.5646 34.128 15.3806 34.128C14.2072 34.128 13.3272 33.8293 12.7406 33.232C12.1539 32.624 11.8659 31.872 11.8766 30.976C11.8659 29.7067 12.2659 28.6133 13.0766 27.696C13.8872 26.7787 14.9486 26.32 16.2606 26.32C16.8579 26.32 17.3379 26.3947 17.7006 26.544C18.3299 26.8 18.6446 27.04 18.6446 27.264C18.6446 27.4347 18.2019 27.5253 17.3166 27.536C16.4419 27.536 15.7059 27.84 15.1086 28.448C14.5219 29.0453 14.2286 29.8027 14.2286 30.72C14.2286 31.2 14.3672 31.6053 14.6446 31.936C14.9326 32.256 15.3326 32.416 15.8446 32.416C16.3672 32.416 16.7992 32.3093 17.1406 32.096C16.3832 31.584 16.0046 30.8427 16.0046 29.872C15.9939 29.36 16.1752 28.896 16.5486 28.48C16.9326 28.0533 17.4179 27.84 18.0046 27.84C18.6019 27.8293 19.0286 27.9893 19.2846 28.32C19.5406 28.6507 19.6686 29.0773 19.6686 29.6C19.6686 30.112 19.5459 30.656 19.3006 31.232H19.3966C19.8659 31.2213 20.2712 31.056 20.6126 30.736C20.7406 30.608 20.8472 30.496 20.9326 30.4C21.0286 30.304 21.1246 30.256 21.2206 30.256C21.3699 30.256 21.4446 30.432 21.4446 30.784C21.4446 31.4347 21.2526 31.9253 20.8686 32.256C20.4846 32.576 20.0579 32.736 19.5886 32.736C19.1299 32.736 18.7406 32.704 18.4206 32.64ZM18.2766 30.784C18.4579 30.4 18.5486 30.0267 18.5486 29.664C18.5486 29.3013 18.4312 29.12 18.1966 29.12C18.1006 29.12 18.0206 29.1893 17.9566 29.328C17.8926 29.4667 17.8606 29.6 17.8606 29.728C17.8606 30.1547 17.9992 30.5067 18.2766 30.784ZM24.2121 34.048C22.6867 34.0587 21.6467 33.488 21.0921 32.336C20.9001 31.9307 20.8041 31.424 20.8041 30.816C20.8041 30.1973 20.8574 29.5413 20.9641 28.848C21.1774 27.4613 21.5881 26.1813 22.1961 25.008C22.5054 24.4107 22.8521 23.8987 23.2361 23.472C24.0787 22.5333 25.0174 22.0693 26.0521 22.08C26.5107 22.08 26.8681 22.208 27.1241 22.464C27.3907 22.7093 27.5241 23.0667 27.5241 23.536C27.5241 24.0053 27.3854 24.48 27.1081 24.96C26.8307 25.4293 26.4734 25.92 26.0361 26.432C25.6094 26.9333 25.1347 27.4613 24.6121 28.016C24.0894 28.5707 23.5774 29.1733 23.0761 29.824V30.464C23.0761 31.0613 23.2041 31.4987 23.4601 31.776C23.7161 32.0533 24.0147 32.192 24.3561 32.192C25.2734 32.192 26.0841 31.7387 26.7881 30.832C27.0761 30.4587 27.2947 30.272 27.4441 30.272C27.5934 30.272 27.6681 30.4533 27.6681 30.816C27.6681 31.1787 27.5667 31.552 27.3641 31.936C27.1721 32.3093 26.9161 32.656 26.5961 32.976C26.2761 33.2853 25.9081 33.5413 25.4921 33.744C25.0761 33.9467 24.6494 34.048 24.2121 34.048ZM25.0761 25.456C25.3001 25.1787 25.4761 24.928 25.6041 24.704C25.7321 24.48 25.7961 24.2507 25.7961 24.016C25.7961 23.7707 25.7107 23.648 25.5401 23.648C25.1667 23.648 24.7507 24.032 24.2921 24.8C23.8441 25.568 23.5081 26.576 23.2841 27.824C23.6467 27.2693 23.9774 26.8053 24.2761 26.432C24.5854 26.0587 24.8521 25.7333 25.0761 25.456ZM36.5462 30.224C36.7382 30.224 36.8342 30.4693 36.8342 30.96C36.8342 31.2267 36.7222 31.552 36.4982 31.936C36.2742 32.3093 35.9809 32.656 35.6182 32.976C35.2662 33.2853 34.8715 33.5413 34.4342 33.744C33.9969 33.9467 33.5702 34.048 33.1542 34.048C32.5675 34.048 32.1835 33.568 32.0022 32.608C31.3622 33.6213 30.4129 34.128 29.1542 34.128C28.3862 34.128 27.7729 33.8933 27.3142 33.424C26.8555 32.9547 26.6315 32.384 26.6422 31.712C26.6422 29.8987 27.2449 28.4693 28.4502 27.424C29.2822 26.7093 30.1462 26.352 31.0422 26.352C31.4475 26.352 31.7675 26.384 32.0022 26.448L32.3702 26.544C32.8075 24.4853 33.3142 23.1093 33.8902 22.416C34.0822 22.1813 34.2742 22.064 34.4662 22.064C34.7755 22.064 35.0635 22.2773 35.3302 22.704C35.5649 23.056 35.6822 23.36 35.6822 23.616C35.6822 23.872 35.6449 24.1227 35.5702 24.368C35.4955 24.6133 35.3995 24.8427 35.2822 25.056C35.1755 25.2587 35.0529 25.4613 34.9142 25.664C34.7755 25.856 34.6369 26.0533 34.4982 26.256C34.1889 27.408 33.9595 28.6987 33.8102 30.128C33.7675 30.5333 33.7462 30.8587 33.7462 31.104C33.7462 31.84 33.8689 32.208 34.1142 32.208C34.3915 32.208 35.0635 31.6533 36.1302 30.544C36.3222 30.3307 36.4609 30.224 36.5462 30.224ZM28.9942 31.184C28.9942 32.0053 29.2982 32.416 29.9062 32.416C30.2689 32.416 30.6315 32.2773 30.9942 32C31.3675 31.7227 31.6555 31.2587 31.8582 30.608C31.8795 29.648 31.9915 28.592 32.1942 27.44C31.3409 27.6107 30.5942 28.0267 29.9542 28.688C29.3142 29.3493 28.9942 30.1813 28.9942 31.184ZM37.9547 34.048C36.888 34.048 36.3547 33.0507 36.3547 31.056C36.3547 29.968 36.488 28.9813 36.7547 28.096C37.1707 26.7307 37.64 26.048 38.1627 26.048C38.472 26.048 38.7174 26.256 38.8987 26.672C39.048 26.992 39.1174 27.3067 39.1067 27.616C39.1067 28.0427 38.9787 28.7947 38.7227 29.872C38.4774 30.8107 38.3547 31.392 38.3547 31.616C38.3547 31.84 38.408 31.9947 38.5147 32.08C38.632 32.1653 38.7654 32.208 38.9147 32.208C39.0747 32.208 39.272 32.1067 39.5067 31.904C39.7414 31.7013 39.976 31.4827 40.2107 31.248C40.4454 31.0027 40.6587 30.7787 40.8507 30.576C41.0534 30.3733 41.192 30.272 41.2667 30.272C41.416 30.272 41.4907 30.4533 41.4907 30.816C41.4907 31.5627 41.112 32.2933 40.3547 33.008C39.608 33.712 38.808 34.0587 37.9547 34.048ZM38.6107 24.752C38.3227 24.3253 38.1787 23.8667 38.1787 23.376C38.1787 22.8853 38.2534 22.48 38.4027 22.16C38.5627 21.8293 38.712 21.5893 38.8507 21.44C38.9894 21.28 39.1494 21.2 39.3307 21.2C39.6294 21.2 39.9014 21.424 40.1467 21.872C40.392 22.3093 40.5147 22.6773 40.5147 22.976C40.5147 23.5307 40.3174 23.968 39.9227 24.288C39.5387 24.5973 39.1014 24.752 38.6107 24.752ZM42.8189 26.016C43.2029 26.016 43.5656 26.384 43.9069 27.12C44.4083 26.5973 45.0269 26.336 45.7629 26.336C46.5096 26.336 47.0696 26.5013 47.4429 26.832C47.8163 27.152 48.0029 27.6107 48.0029 28.208C48.0029 28.7947 47.9229 29.392 47.7629 30C47.6136 30.608 47.5016 31.0453 47.4269 31.312C47.3629 31.568 47.3309 31.7813 47.3309 31.952C47.3309 32.1227 47.3896 32.208 47.5069 32.208C47.6669 32.208 47.8643 32.1067 48.0989 31.904C48.3336 31.7013 48.5683 31.4827 48.8029 31.248C49.0376 31.0027 49.2509 30.7787 49.4429 30.576C49.6456 30.3733 49.7843 30.272 49.8589 30.272C50.0083 30.272 50.0829 30.4533 50.0829 30.816C50.0829 31.5627 49.7149 32.2827 48.9789 32.976C47.7416 33.7013 46.9523 34.064 46.6109 34.064C46.5789 34.064 46.5576 34.0587 46.5469 34.048C45.6936 34.048 45.2669 33.3653 45.2669 32C45.2669 31.4133 45.3203 30.8747 45.4269 30.384C45.5443 29.8933 45.6296 29.536 45.6829 29.312C45.7363 29.088 45.7629 28.8587 45.7629 28.624C45.7629 28.24 45.5389 28.048 45.0909 28.048C44.6536 28.048 44.2323 28.3787 43.8269 29.04C43.4323 29.6907 43.1656 30.368 43.0269 31.072V31.184C43.0269 31.5467 43.0803 31.92 43.1869 32.304C43.3043 32.688 43.3629 32.9547 43.3629 33.104C43.3629 33.4667 42.9096 33.824 42.0029 34.176C41.8643 34.2293 41.7416 34.256 41.6349 34.256C41.3683 34.256 41.1816 34.1173 41.0749 33.84C40.9789 33.5627 40.9309 33.1307 40.9309 32.544C40.9309 31.0293 40.9896 29.936 41.1069 29.264C41.2669 28.2613 41.6296 27.328 42.1949 26.464C42.3869 26.1653 42.5949 26.016 42.8189 26.016ZM55.4127 26.72C55.562 26.2507 55.802 26.016 56.1327 26.016C56.4314 26.0267 56.714 26.24 56.9807 26.656C57.2474 27.0613 57.3807 27.376 57.3807 27.6C57.3594 28.0373 57.226 28.736 56.9807 29.696C56.7354 30.6453 56.3887 31.8827 55.9407 33.408C56.6447 32.864 57.338 32.1547 58.0207 31.28C58.2554 30.9813 58.4527 30.7413 58.6127 30.56C58.7834 30.368 58.922 30.272 59.0287 30.272C59.178 30.272 59.2527 30.4427 59.2527 30.784C59.2527 31.456 58.874 32.24 58.1167 33.136C57.37 34.032 56.4527 34.7307 55.3647 35.232C55.2367 35.6587 55.098 36.064 54.9487 36.448C54.7994 36.832 54.6074 37.168 54.3727 37.456C53.8607 38.0747 53.082 38.384 52.0367 38.384C51.3327 38.384 50.73 38.1813 50.2287 37.776C49.738 37.3707 49.4927 36.864 49.4927 36.256C49.4927 35.9253 49.5994 35.664 49.8127 35.472C50.0367 35.28 50.3407 35.1253 50.7247 35.008C51.1087 34.8907 51.5567 34.7893 52.0687 34.704C52.5914 34.6187 53.146 34.512 53.7327 34.384C53.786 34.2027 53.8287 34.0267 53.8607 33.856C53.9034 33.6747 53.946 33.4933 53.9887 33.312C53.402 33.856 52.682 34.128 51.8287 34.128C50.986 34.128 50.3354 33.8933 49.8767 33.424C49.418 32.9547 49.194 32.384 49.2047 31.712C49.2047 29.8987 49.8074 28.4693 51.0127 27.424C51.8447 26.7093 52.7087 26.352 53.6047 26.352C53.914 26.352 54.2447 26.3893 54.5967 26.464C54.9594 26.5387 55.2314 26.624 55.4127 26.72ZM51.5567 31.184C51.5567 32.0053 51.8607 32.416 52.4687 32.416C52.81 32.416 53.1567 32.288 53.5087 32.032C53.8607 31.776 54.1434 31.36 54.3567 30.784C54.5167 30.0373 54.682 29.3493 54.8527 28.72C55.034 28.0907 55.1567 27.6533 55.2207 27.408C54.3247 27.5253 53.4874 27.9253 52.7087 28.608C51.9407 29.2907 51.5567 30.1493 51.5567 31.184ZM53.2367 35.856C52.8527 35.9307 52.5167 35.9893 52.2287 36.032C51.9407 36.0747 51.7007 36.112 51.5087 36.144C51.3274 36.176 51.1887 36.2133 51.0927 36.256C51.0074 36.2987 50.9647 36.368 50.9647 36.464C50.9647 36.656 51.082 36.8213 51.3167 36.96C51.562 37.0987 51.802 37.1627 52.0367 37.152C52.442 37.152 52.842 36.72 53.2367 35.856Z" fill="white"/>
</svg>
