<svg width="38" height="12" viewBox="0 0 38 12" fill="none" xmlns="http://www.w3.org/2000/svg">
<path d="M2.336 9.416C1.99467 9.416 1.75467 9.35733 1.616 9.24C1.488 9.12267 1.424 8.97333 1.424 8.792C1.424 8.67467 1.44 8.55733 1.472 8.44C1.51467 8.312 1.55733 8.184 1.6 8.056C1.73867 7.71467 1.88267 7.37867 2.032 7.048C2.192 6.71733 2.35733 6.392 2.528 6.072C2.69867 5.74133 2.90133 5.34667 3.136 4.888C3.37067 4.42933 3.6 3.94933 3.824 3.448C4.05867 2.936 4.25067 2.44 4.4 1.96C4.56 1.48 4.64 1.05867 4.64 0.695999H3.232C3.072 0.695999 2.848 0.706666 2.56 0.728C2.28267 0.749333 1.99467 0.797333 1.696 0.872C1.408 0.946666 1.168 1.06933 0.976 1.24C0.784 1.41067 0.698667 1.64 0.72 1.928C0.730667 2.01333 0.762667 2.13067 0.816 2.28C0.869333 2.41867 0.906667 2.504 0.928 2.536L0.752 2.664C0.688 2.54667 0.608 2.41333 0.512 2.264C0.416 2.104 0.330667 1.94933 0.256 1.8C0.181333 1.65067 0.138667 1.53867 0.128 1.464C0.128 1.44267 0.122667 1.416 0.112 1.384C0.112 1.352 0.112 1.32 0.112 1.288C0.112 1.17067 0.133333 1.05333 0.176 0.936C0.218667 0.808 0.293333 0.695999 0.4 0.599999C0.56 0.461333 0.778667 0.370666 1.056 0.327999C1.344 0.285333 1.63733 0.264 1.936 0.264C2.224 0.264 2.50133 0.274666 2.768 0.296C3.03467 0.317333 3.25333 0.327999 3.424 0.327999C3.424 0.327999 3.54667 0.327999 3.792 0.327999C4.03733 0.327999 4.34667 0.327999 4.72 0.327999C5.104 0.317333 5.50933 0.311999 5.936 0.311999C6.36267 0.311999 6.752 0.311999 7.104 0.311999L6.896 0.552C6.704 0.552 6.50133 0.584 6.288 0.648C6.08533 0.701333 5.90933 0.818666 5.76 1C5.536 1.288 5.28533 1.66667 5.008 2.136C4.73067 2.60533 4.448 3.12267 4.16 3.688C3.872 4.25333 3.60533 4.81867 3.36 5.384C3.11467 5.94933 2.90667 6.48267 2.736 6.984C2.576 7.47467 2.47467 7.89067 2.432 8.232C2.42133 8.424 2.464 8.56267 2.56 8.648C2.66667 8.73333 2.80533 8.776 2.976 8.776C3.2 8.776 3.41867 8.71733 3.632 8.6C4.05867 8.38667 4.48533 8.088 4.912 7.704C5.33867 7.30933 5.744 6.888 6.128 6.44C6.512 5.992 6.83733 5.576 7.104 5.192C7.53067 4.584 7.94133 3.92267 8.336 3.208C8.74133 2.49333 9.088 1.82133 9.376 1.192C9.45067 1.064 9.51467 0.92 9.568 0.759999C9.632 0.589333 9.71733 0.504 9.824 0.504C9.86667 0.504 9.92 0.509333 9.984 0.52C10.048 0.530666 10.1173 0.535999 10.192 0.535999C10.5227 0.535999 10.8267 0.402666 11.104 0.136C11.1147 0.125333 11.1413 0.12 11.184 0.12C11.2267 0.12 11.2587 0.130666 11.28 0.151999C11.312 0.162666 11.3173 0.178666 11.296 0.2C11.0613 0.392 10.864 0.584 10.704 0.776C10.544 0.968 10.368 1.21333 10.176 1.512C9.952 1.85333 9.696 2.248 9.408 2.696C9.13067 3.144 8.848 3.61333 8.56 4.104C8.272 4.59467 8.01067 5.08 7.776 5.56C7.54133 6.04 7.36 6.47733 7.232 6.872C7.168 7.07467 7.11467 7.27733 7.072 7.48C7.02933 7.68267 7.008 7.86933 7.008 8.04C7.008 8.296 7.06133 8.504 7.168 8.664C7.28533 8.824 7.47733 8.904 7.744 8.904C7.79733 8.904 7.84533 8.904 7.888 8.904C7.94133 8.89333 7.99467 8.88267 8.048 8.872C8.25067 8.84 8.48 8.728 8.736 8.536C9.00267 8.33333 9.25333 8.11467 9.488 7.88C9.72267 7.66667 9.92 7.464 10.08 7.272C10.2507 7.06933 10.432 6.85067 10.624 6.616C10.6453 6.65867 10.656 6.70133 10.656 6.744C10.6453 6.81867 10.6187 6.89333 10.576 6.968C10.544 7.04267 10.5013 7.10667 10.448 7.16C10.3733 7.256 10.2613 7.39467 10.112 7.576C9.96267 7.74667 9.79733 7.928 9.616 8.12C9.488 8.248 9.296 8.41867 9.04 8.632C8.784 8.83467 8.50667 9.016 8.208 9.176C7.92 9.336 7.648 9.416 7.392 9.416C6.99733 9.416 6.72533 9.30933 6.576 9.096C6.42667 8.89333 6.352 8.64267 6.352 8.344C6.352 7.97067 6.42667 7.56 6.576 7.112C6.736 6.664 6.88533 6.25867 7.024 5.896C6.8 6.16267 6.56533 6.41867 6.32 6.664C6.07467 6.89867 5.82933 7.13867 5.584 7.384C5.328 7.62933 5.06667 7.88 4.8 8.136C4.544 8.38133 4.27733 8.60533 4 8.808C3.744 8.97867 3.47733 9.12267 3.2 9.24C2.92267 9.35733 2.63467 9.416 2.336 9.416ZM10.9973 9.128C10.6026 9.128 10.3253 9.05333 10.1653 8.904C10.0053 8.75467 9.92525 8.56267 9.92525 8.328C9.92525 8.01867 10.0266 7.67733 10.2293 7.304C10.4319 6.92 10.6239 6.6 10.8053 6.344C10.9866 6.09867 11.1893 5.86933 11.4133 5.656C11.6479 5.432 11.8986 5.24 12.1653 5.08C12.3359 4.97333 12.5653 4.86133 12.8533 4.744C13.1519 4.616 13.4026 4.552 13.6053 4.552C13.8506 4.552 14.0213 4.61067 14.1173 4.728C14.2133 4.83467 14.2613 4.968 14.2613 5.128C14.2613 5.256 14.2399 5.38933 14.1973 5.528C14.1546 5.656 14.1066 5.77867 14.0533 5.896C14.0213 5.96 13.9733 6.008 13.9093 6.04C13.8453 6.06133 13.8133 6.05067 13.8133 6.008C13.8133 5.95467 13.8186 5.90667 13.8293 5.864C13.8399 5.82133 13.8453 5.77333 13.8453 5.72C13.8453 5.51733 13.7973 5.32 13.7013 5.128C13.6159 4.92533 13.4826 4.824 13.3013 4.824C13.1093 4.824 12.9013 4.89333 12.6773 5.032C12.4533 5.16 12.2986 5.272 12.2133 5.368C11.9359 5.656 11.6639 6.01333 11.3973 6.44C11.1413 6.86667 10.9546 7.272 10.8372 7.656C10.7626 7.88 10.7253 8.072 10.7253 8.232C10.7253 8.41333 10.7733 8.54133 10.8693 8.616C10.9653 8.69067 11.0826 8.728 11.2213 8.728C11.3279 8.728 11.4399 8.712 11.5573 8.68C11.6853 8.648 11.8186 8.61067 11.9573 8.568C12.2773 8.46133 12.5973 8.296 12.9173 8.072C13.2479 7.83733 13.5466 7.592 13.8133 7.336C14.0799 7.06933 14.2826 6.84 14.4213 6.648C14.4426 6.66933 14.4533 6.70133 14.4533 6.744C14.4533 6.79733 14.4319 6.86133 14.3893 6.936C14.3466 7 14.3146 7.05333 14.2933 7.096C14.0693 7.39467 13.7759 7.704 13.4133 8.024C13.0506 8.33333 12.6559 8.59467 12.2293 8.808C11.8133 9.02133 11.4026 9.128 10.9973 9.128ZM8.62925 11.896C8.55458 11.896 8.51725 11.8693 8.51725 11.816C8.51725 11.784 8.53858 11.7573 8.58125 11.736C8.62392 11.7147 8.65592 11.704 8.67725 11.704C8.73058 11.6933 8.84258 11.688 9.01325 11.688C9.18392 11.688 9.36525 11.672 9.55725 11.64C9.74925 11.608 9.92525 11.5387 10.0853 11.432C10.2559 11.336 10.3626 11.192 10.4053 11C10.4266 10.8827 10.3893 10.7653 10.2933 10.648C10.1973 10.5307 10.0959 10.4027 9.98925 10.264C9.88258 10.136 9.82925 10.008 9.82925 9.88C9.82925 9.656 9.94125 9.448 10.1653 9.256C10.3999 9.07467 10.6773 8.984 10.9973 8.984H11.3333C11.0986 9.02667 10.8906 9.11733 10.7093 9.256C10.5279 9.39467 10.4373 9.544 10.4373 9.704C10.4373 9.832 10.4959 9.95467 10.6133 10.072C10.7306 10.1893 10.8373 10.3067 10.9333 10.424C11.0399 10.552 11.0773 10.7013 11.0453 10.872C10.9919 11.1173 10.8213 11.3093 10.5333 11.448C10.2559 11.5973 9.94125 11.7093 9.58925 11.784C9.23725 11.8587 8.91725 11.896 8.62925 11.896ZM16.3138 9.048C16.2071 9.048 16.1164 9.02667 16.0418 8.984C15.9671 8.94133 15.9298 8.86133 15.9298 8.744C15.9298 8.59467 15.9671 8.424 16.0418 8.232C16.1164 8.04 16.2018 7.85333 16.2978 7.672C16.3938 7.48 16.4791 7.32533 16.5538 7.208C16.1804 7.60267 15.7911 7.976 15.3858 8.328C15.1831 8.49867 14.9591 8.65867 14.7138 8.808C14.4684 8.95733 14.2071 9.032 13.9298 9.032C13.8231 9.032 13.7484 9 13.7058 8.936C13.6631 8.86133 13.6418 8.776 13.6418 8.68C13.6418 8.62667 13.6471 8.58933 13.6578 8.568C13.7111 8.152 13.8444 7.72 14.0578 7.272C14.2711 6.824 14.5324 6.40267 14.8418 6.008C15.1511 5.61333 15.4658 5.29333 15.7858 5.048C16.1484 4.77067 16.5484 4.632 16.9858 4.632H18.8258C18.8791 4.632 18.9058 4.65333 18.9058 4.696C18.9058 4.78133 18.8578 4.824 18.7618 4.824C18.6551 4.824 18.5484 4.89333 18.4418 5.032C18.3351 5.16 18.2551 5.26667 18.2018 5.352C18.1271 5.46933 18.0098 5.66667 17.8498 5.944C17.6898 6.22133 17.5244 6.52533 17.3538 6.856C17.1938 7.176 17.0551 7.47467 16.9378 7.752C16.8204 8.02933 16.7618 8.232 16.7618 8.36C16.7618 8.50933 16.8364 8.584 16.9858 8.584C17.1458 8.584 17.3271 8.50933 17.5298 8.36C17.7324 8.21067 17.9351 8.02933 18.1378 7.816C18.3511 7.592 18.5431 7.37333 18.7138 7.16C18.8951 6.936 19.0391 6.76 19.1458 6.632C19.2098 6.696 19.2044 6.78667 19.1298 6.904C19.0658 7.01067 19.0071 7.096 18.9538 7.16C18.7404 7.43733 18.4951 7.72533 18.2178 8.024C17.9404 8.312 17.6364 8.55733 17.3058 8.76C16.9858 8.952 16.6551 9.048 16.3138 9.048ZM14.5858 8.488C14.7138 8.488 14.8898 8.39733 15.1138 8.216C15.3484 8.024 15.5991 7.78933 15.8658 7.512C16.1324 7.224 16.3831 6.92533 16.6178 6.616C16.8524 6.296 17.0444 6.008 17.1938 5.752C17.3538 5.48533 17.4338 5.28267 17.4338 5.144C17.4338 5.02667 17.3964 4.94667 17.3218 4.904C17.2578 4.86133 17.1724 4.84 17.0658 4.84C16.8951 4.84 16.7084 4.904 16.5058 5.032C16.3138 5.14933 16.1591 5.26667 16.0418 5.384C15.9138 5.50133 15.7591 5.688 15.5778 5.944C15.4071 6.18933 15.2364 6.46133 15.0658 6.76C14.8951 7.05867 14.7511 7.34667 14.6338 7.624C14.5164 7.90133 14.4578 8.12533 14.4578 8.296C14.4578 8.424 14.5004 8.488 14.5858 8.488ZM18.9369 9.224C18.8942 9.224 18.8942 9.18133 18.9369 9.096C18.9902 9 19.0382 8.89333 19.0809 8.776C19.1342 8.65867 19.1875 8.53067 19.2409 8.392C19.3475 8.136 19.4649 7.848 19.5929 7.528C19.7209 7.208 19.8435 6.89867 19.9609 6.6C20.0782 6.29067 20.1795 6.02933 20.2649 5.816C20.3609 5.592 20.4249 5.448 20.4569 5.384C20.3075 5.544 20.1262 5.74667 19.9129 5.992C19.7102 6.22667 19.5182 6.456 19.3369 6.68C19.1555 6.904 19.0169 7.08 18.9209 7.208C18.8889 7.25067 18.8622 7.272 18.8409 7.272C18.8195 7.272 18.8089 7.24533 18.8089 7.192C18.8089 7.10667 18.8355 7.02667 18.8889 6.952C19.0915 6.696 19.3155 6.408 19.5609 6.088C19.8169 5.768 20.0462 5.47467 20.2489 5.208C20.4515 4.93067 20.5795 4.74933 20.6329 4.664C20.7502 4.64267 20.9209 4.61067 21.1449 4.568C21.3795 4.52533 21.5395 4.46667 21.6249 4.392C21.6569 4.36 21.6889 4.344 21.7209 4.344C21.7422 4.344 21.7529 4.36533 21.7529 4.408C21.7635 4.44 21.7529 4.47733 21.7209 4.52C21.6569 4.584 21.5609 4.72267 21.4329 4.936C21.3155 5.14933 21.1822 5.39467 21.0329 5.672C20.8835 5.94933 20.7395 6.216 20.6009 6.472C20.7075 6.312 20.8462 6.12533 21.0169 5.912C21.1982 5.688 21.3955 5.47467 21.6089 5.272C21.8222 5.05867 22.0355 4.88267 22.2489 4.744C22.4729 4.60533 22.6809 4.536 22.8729 4.536C23.0115 4.536 23.1289 4.568 23.2249 4.632C23.3209 4.68533 23.3955 4.78667 23.4489 4.936C23.4809 5.01067 23.4969 5.096 23.4969 5.192C23.4969 5.37333 23.4489 5.54933 23.3529 5.72C23.2675 5.88 23.2035 6.00267 23.1609 6.088C23.1502 6.12 23.1129 6.152 23.0489 6.184C22.9849 6.20533 22.9582 6.19467 22.9689 6.152C22.9795 6.09867 22.9849 6.04533 22.9849 5.992C22.9955 5.93867 23.0009 5.88 23.0009 5.816C23.0009 5.63467 22.9635 5.46933 22.8889 5.32C22.8249 5.17067 22.7022 5.096 22.5209 5.096C22.3502 5.096 22.1422 5.20267 21.8969 5.416C21.6515 5.62933 21.4062 5.87467 21.1609 6.152C20.8515 6.51467 20.6062 6.86133 20.4249 7.192C20.2435 7.512 20.0942 7.82667 19.9769 8.136C19.9129 8.30667 19.8489 8.47733 19.7849 8.648C19.7209 8.808 19.6729 8.936 19.6409 9.032C19.5022 9.04267 19.3635 9.07467 19.2249 9.128C19.0862 9.192 18.9902 9.224 18.9369 9.224ZM24.1603 9.256C23.9683 9.256 23.7656 9.22933 23.5523 9.176C23.3389 9.12267 23.1469 9.03733 22.9763 8.92C22.8163 8.792 22.7096 8.62133 22.6562 8.408C22.6456 8.376 22.6402 8.328 22.6402 8.264C22.6402 8.11467 22.6723 7.94933 22.7363 7.768C22.8109 7.58667 22.9016 7.45867 23.0083 7.384C23.0509 7.36267 23.0829 7.36267 23.1043 7.384C23.1363 7.40533 23.1416 7.42667 23.1203 7.448C23.1096 7.48 23.0936 7.52267 23.0723 7.576C23.0509 7.61867 23.0349 7.66667 23.0243 7.72C22.9923 7.99733 23.0509 8.24267 23.2003 8.456C23.2643 8.54133 23.3389 8.62133 23.4243 8.696C23.5203 8.77067 23.6109 8.83467 23.6963 8.888C23.7709 8.93067 23.8616 8.96267 23.9683 8.984C24.0749 8.99467 24.1816 9 24.2883 9C24.4589 9 24.6243 8.97867 24.7843 8.936C24.9443 8.89333 25.0616 8.824 25.1363 8.728C25.2749 8.55733 25.3443 8.36533 25.3443 8.152C25.3443 7.992 25.3016 7.82133 25.2163 7.64C25.1309 7.45867 24.9976 7.26667 24.8163 7.064C24.6989 6.936 24.5869 6.79733 24.4803 6.648C24.3736 6.49867 24.3043 6.33867 24.2723 6.168C24.2616 6.136 24.2509 6.104 24.2403 6.072C24.2403 6.04 24.2403 6.008 24.2403 5.976C24.1016 6.17867 23.9576 6.37067 23.8083 6.552C23.6696 6.72267 23.5469 6.872 23.4403 7C23.3976 7.064 23.3603 7.096 23.3283 7.096C23.3069 7.096 23.2963 7.07467 23.2963 7.032C23.2963 6.936 23.3389 6.83467 23.4243 6.728C23.5096 6.632 23.6056 6.51467 23.7122 6.376C23.8189 6.22667 23.9043 6.10933 23.9683 6.024C24.1496 5.75733 24.2829 5.54933 24.3683 5.4C24.4643 5.24 24.5656 5.096 24.6723 4.968C24.7896 4.82933 24.9336 4.71733 25.1043 4.632C25.2856 4.54667 25.4723 4.504 25.6643 4.504C25.8883 4.504 26.0909 4.54133 26.2723 4.616C26.4643 4.68 26.5656 4.85067 26.5763 5.128C26.5763 5.256 26.5496 5.38933 26.4963 5.528C26.4536 5.656 26.4056 5.77867 26.3523 5.896C26.3203 5.96 26.2723 6.008 26.2083 6.04C26.1549 6.06133 26.1283 6.05067 26.1283 6.008C26.1283 5.96533 26.1336 5.91733 26.1443 5.864C26.1549 5.81067 26.1603 5.76267 26.1603 5.72C26.1603 5.53867 26.1283 5.37867 26.0643 5.24C26.0109 5.09067 25.9309 4.984 25.8243 4.92C25.7176 4.84533 25.6056 4.808 25.4883 4.808C25.3176 4.808 25.1523 4.87733 24.9923 5.016C24.8323 5.144 24.7523 5.31467 24.7523 5.528C24.7523 5.54933 24.7523 5.576 24.7523 5.608C24.7523 5.64 24.7576 5.66667 24.7682 5.688C24.8109 5.85867 24.9389 6.05067 25.1523 6.264C25.3656 6.47733 25.5309 6.664 25.6483 6.824C25.8509 7.10133 25.9523 7.384 25.9523 7.672C25.9523 7.96 25.8669 8.22667 25.6963 8.472C25.5363 8.70667 25.3176 8.89333 25.0403 9.032C24.7736 9.18133 24.4803 9.256 24.1603 9.256ZM29.095 9.048C28.9883 9.048 28.8977 9.02667 28.823 8.984C28.7483 8.94133 28.711 8.86133 28.711 8.744C28.711 8.59467 28.7483 8.424 28.823 8.232C28.8977 8.04 28.983 7.85333 29.079 7.672C29.175 7.48 29.2603 7.32533 29.335 7.208C28.9617 7.60267 28.5723 7.976 28.167 8.328C27.9643 8.49867 27.7403 8.65867 27.495 8.808C27.2497 8.95733 26.9883 9.032 26.711 9.032C26.6043 9.032 26.5297 9 26.487 8.936C26.4443 8.86133 26.423 8.776 26.423 8.68C26.423 8.62667 26.4283 8.58933 26.439 8.568C26.4923 8.152 26.6257 7.72 26.839 7.272C27.0523 6.824 27.3137 6.40267 27.623 6.008C27.9323 5.61333 28.247 5.29333 28.567 5.048C28.9297 4.77067 29.3297 4.632 29.767 4.632H31.607C31.6603 4.632 31.687 4.65333 31.687 4.696C31.687 4.78133 31.639 4.824 31.543 4.824C31.4363 4.824 31.3297 4.89333 31.223 5.032C31.1163 5.16 31.0363 5.26667 30.983 5.352C30.9083 5.46933 30.791 5.66667 30.631 5.944C30.471 6.22133 30.3057 6.52533 30.135 6.856C29.975 7.176 29.8363 7.47467 29.719 7.752C29.6017 8.02933 29.543 8.232 29.543 8.36C29.543 8.50933 29.6177 8.584 29.767 8.584C29.927 8.584 30.1083 8.50933 30.311 8.36C30.5137 8.21067 30.7163 8.02933 30.919 7.816C31.1323 7.592 31.3243 7.37333 31.495 7.16C31.6763 6.936 31.8203 6.76 31.927 6.632C31.991 6.696 31.9857 6.78667 31.911 6.904C31.847 7.01067 31.7883 7.096 31.735 7.16C31.5217 7.43733 31.2763 7.72533 30.999 8.024C30.7217 8.312 30.4177 8.55733 30.087 8.76C29.767 8.952 29.4363 9.048 29.095 9.048ZM27.367 8.488C27.495 8.488 27.671 8.39733 27.895 8.216C28.1297 8.024 28.3803 7.78933 28.647 7.512C28.9137 7.224 29.1643 6.92533 29.399 6.616C29.6337 6.296 29.8257 6.008 29.975 5.752C30.135 5.48533 30.215 5.28267 30.215 5.144C30.215 5.02667 30.1777 4.94667 30.103 4.904C30.039 4.86133 29.9537 4.84 29.847 4.84C29.6763 4.84 29.4897 4.904 29.287 5.032C29.095 5.14933 28.9403 5.26667 28.823 5.384C28.695 5.50133 28.5403 5.688 28.359 5.944C28.1883 6.18933 28.0177 6.46133 27.847 6.76C27.6763 7.05867 27.5323 7.34667 27.415 7.624C27.2977 7.90133 27.239 8.12533 27.239 8.296C27.239 8.424 27.2817 8.488 27.367 8.488ZM31.7181 9.24C31.6755 9.24 31.6755 9.192 31.7181 9.096C31.7715 9 31.8195 8.89333 31.8621 8.776C31.9155 8.65867 31.9688 8.53067 32.0221 8.392C32.1288 8.136 32.2461 7.848 32.3741 7.528C32.5021 7.208 32.6248 6.89867 32.7421 6.6C32.8595 6.29067 32.9608 6.02933 33.0461 5.816C33.1421 5.592 33.2061 5.448 33.2381 5.384C33.0888 5.544 32.9075 5.74667 32.6941 5.992C32.4915 6.22667 32.2995 6.456 32.1181 6.68C31.9368 6.904 31.7981 7.08 31.7021 7.208C31.6701 7.25067 31.6435 7.272 31.6221 7.272C31.6008 7.272 31.5901 7.24533 31.5901 7.192C31.5901 7.10667 31.6168 7.02667 31.6701 6.952C31.8728 6.696 32.0968 6.408 32.3421 6.088C32.5981 5.768 32.8275 5.47467 33.0301 5.208C33.2328 4.93067 33.3608 4.74933 33.4141 4.664C33.5315 4.64267 33.7021 4.61067 33.9261 4.568C34.1608 4.52533 34.3208 4.46667 34.4061 4.392C34.4381 4.36 34.4701 4.344 34.5021 4.344C34.5235 4.344 34.5341 4.36533 34.5341 4.408C34.5448 4.44 34.5341 4.47733 34.5021 4.52C34.4381 4.59467 34.3261 4.77067 34.1661 5.048C34.0168 5.31467 33.8515 5.61333 33.6701 5.944C33.4995 6.27467 33.3395 6.57333 33.1901 6.84C33.3181 6.66933 33.4568 6.504 33.6061 6.344C33.7555 6.184 33.8995 6.02933 34.0381 5.88C34.1661 5.752 34.3421 5.592 34.5661 5.4C34.7901 5.208 35.0248 5.032 35.2701 4.872C35.5155 4.712 35.7288 4.62133 35.9101 4.6C35.9528 4.58933 35.9901 4.584 36.0221 4.584C36.0648 4.584 36.0968 4.584 36.1181 4.584C36.3528 4.584 36.4701 4.66933 36.4701 4.84C36.4701 4.968 36.4008 5.13867 36.2621 5.352C36.1875 5.46933 36.0701 5.66667 35.9101 5.944C35.7608 6.21067 35.6061 6.504 35.4461 6.824C35.2968 7.13333 35.1635 7.42667 35.0461 7.704C34.9395 7.97067 34.8861 8.168 34.8861 8.296C34.8861 8.44533 34.9608 8.52 35.1101 8.52C35.2915 8.52 35.4888 8.42933 35.7021 8.248C35.9261 8.06667 36.1661 7.83733 36.4221 7.56C36.6781 7.272 36.9341 6.968 37.1901 6.648C37.2115 6.66933 37.2221 6.70667 37.2221 6.76C37.2221 6.83467 37.1955 6.90933 37.1421 6.984C37.0995 7.048 37.0568 7.10667 37.0141 7.16C36.9075 7.29867 36.7635 7.47467 36.5821 7.688C36.4115 7.89067 36.2355 8.09333 36.0541 8.296C35.8728 8.488 35.7075 8.64267 35.5581 8.76C35.4515 8.83467 35.3128 8.91467 35.1421 9C34.9715 9.08533 34.8008 9.128 34.6301 9.128C34.4381 9.128 34.3048 9.08 34.2301 8.984C34.1555 8.87733 34.1181 8.74933 34.1181 8.6C34.1181 8.42933 34.1501 8.248 34.2141 8.056C34.2781 7.864 34.3475 7.68267 34.4221 7.512C34.5075 7.33067 34.5715 7.19733 34.6141 7.112C34.8061 6.73867 34.9821 6.38667 35.1421 6.056C35.3021 5.72533 35.4141 5.49067 35.4781 5.352C35.5101 5.288 35.5261 5.23467 35.5261 5.192C35.5261 5.11733 35.4675 5.112 35.3501 5.176C35.2328 5.24 35.0888 5.336 34.9181 5.464C34.7581 5.592 34.6088 5.72 34.4701 5.848C34.3315 5.96533 34.2408 6.04533 34.1981 6.088C33.8035 6.504 33.4568 6.968 33.1581 7.48C32.8701 7.98133 32.6248 8.49867 32.4221 9.032C32.2835 9.04267 32.1448 9.08 32.0061 9.144C31.8675 9.208 31.7715 9.24 31.7181 9.24Z" fill="white"/>
</svg>
