<svg width="77" height="39" viewBox="0 0 77 39" fill="none" xmlns="http://www.w3.org/2000/svg">
<path d="M13.742 13.328C12.7073 13.328 11.79 13.152 10.99 12.8C10.2007 12.4587 9.53933 11.9787 9.006 11.36C8.47267 10.7413 8.06733 10.0213 7.79 9.2C7.52333 8.37867 7.39 7.49867 7.39 6.56C7.39 5.792 7.48067 5.00267 7.662 4.192C7.854 3.38133 8.13133 2.57067 8.494 1.76C8.53667 1.664 8.59533 1.59467 8.67 1.552C8.75533 1.50933 8.83533 1.488 8.91 1.488C9.07 1.488 9.19267 1.536 9.278 1.632C9.36333 1.71733 9.406 1.83467 9.406 1.984C9.406 2.02667 9.40067 2.08 9.39 2.144C9.37933 2.19733 9.36333 2.25067 9.342 2.304C9.03267 2.99733 8.798 3.69067 8.638 4.384C8.48867 5.07733 8.414 5.75467 8.414 6.416C8.414 7.504 8.61667 8.496 9.022 9.392C9.42733 10.2773 10.0247 10.9867 10.814 11.52C11.614 12.0427 12.59 12.304 13.742 12.304C14.8087 12.304 15.6673 12.0693 16.318 11.6C16.9793 11.12 17.4593 10.4747 17.758 9.664C18.0673 8.85333 18.222 7.952 18.222 6.96C18.222 6.224 18.1473 5.456 17.998 4.656C17.8487 3.856 17.6353 3.06133 17.358 2.272C17.326 2.208 17.31 2.14933 17.31 2.096C17.31 1.968 17.3687 1.856 17.486 1.76C17.6033 1.664 17.7153 1.616 17.822 1.616C18.0353 1.616 18.1847 1.728 18.27 1.952C18.5793 2.816 18.814 3.68 18.974 4.544C19.134 5.39733 19.214 6.21867 19.214 7.008C19.214 7.89333 19.1073 8.72 18.894 9.488C18.6807 10.256 18.35 10.928 17.902 11.504C17.4647 12.08 16.8993 12.528 16.206 12.848C15.5233 13.168 14.702 13.328 13.742 13.328ZM26.9634 12.976C26.782 12.976 26.606 12.9707 26.4354 12.96C26.4247 12.9707 26.4194 12.9813 26.4194 12.992L26.2594 13.28C26.3447 13.2693 26.4194 13.264 26.4834 13.264C26.558 13.264 26.6327 13.264 26.7074 13.264C27.4327 13.264 27.95 13.4027 28.2594 13.68C28.5154 13.8933 28.6434 14.1867 28.6434 14.56C28.6434 14.9013 28.526 15.1893 28.2914 15.424C28.11 15.5947 27.8807 15.7067 27.6034 15.76C27.3367 15.824 27.0647 15.856 26.7874 15.856C26.6807 15.856 26.5687 15.8507 26.4514 15.84C26.3447 15.84 26.2434 15.84 26.1474 15.84C26.0407 15.8293 25.95 15.7867 25.8754 15.712C25.8007 15.6373 25.7634 15.5467 25.7634 15.44C25.7634 15.3227 25.8007 15.2213 25.8754 15.136C25.95 15.0613 26.046 15.024 26.1634 15.024C26.2594 15.024 26.3554 15.024 26.4514 15.024C26.5474 15.0347 26.6487 15.04 26.7554 15.04C26.958 15.04 27.15 15.024 27.3314 14.992C27.5127 14.9707 27.646 14.9173 27.7314 14.832C27.7527 14.8107 27.774 14.7787 27.7954 14.736C27.8167 14.704 27.8274 14.6507 27.8274 14.576C27.8274 14.512 27.822 14.4587 27.8114 14.416C27.8114 14.3733 27.7847 14.336 27.7314 14.304C27.5607 14.1547 27.2194 14.08 26.7074 14.08C26.3767 14.08 26.0034 14.112 25.5874 14.176H25.5394C25.4007 14.176 25.2887 14.1227 25.2034 14.016C25.15 13.9413 25.1234 13.8667 25.1234 13.792C25.1234 13.728 25.1394 13.664 25.1714 13.6C25.2247 13.4827 25.2834 13.3653 25.3474 13.248C25.4114 13.1307 25.47 13.0187 25.5234 12.912L25.5554 12.864C24.5207 12.704 23.6247 12.368 22.8674 11.856C22.1207 11.344 21.5394 10.6827 21.1234 9.872C20.7074 9.05067 20.4994 8.10667 20.4994 7.04C20.4994 6.16533 20.6594 5.36 20.9794 4.624C21.2994 3.87733 21.7527 3.22667 22.3394 2.672C22.926 2.11733 23.6087 1.69067 24.3874 1.392C25.1767 1.08267 26.0354 0.927999 26.9634 0.927999C27.8807 0.927999 28.75 1.104 29.5714 1.456C30.4034 1.808 31.1287 2.32 31.7474 2.992C31.8327 3.09867 31.8754 3.20533 31.8754 3.312C31.8754 3.44 31.822 3.55733 31.7154 3.664C31.6407 3.76 31.534 3.808 31.3954 3.808C31.2567 3.808 31.1394 3.75467 31.0434 3.648C30.51 3.072 29.8914 2.63467 29.1874 2.336C28.494 2.03733 27.7527 1.888 26.9634 1.888C25.9074 1.888 24.9634 2.112 24.1314 2.56C23.2994 2.99733 22.6434 3.60533 22.1634 4.384C21.694 5.16267 21.4594 6.048 21.4594 7.04C21.4594 8.096 21.6887 8.99733 22.1474 9.744C22.606 10.48 23.246 11.0453 24.0674 11.44C24.8994 11.824 25.8647 12.016 26.9634 12.016C27.7207 12.016 28.4354 11.8827 29.1074 11.616C29.79 11.3387 30.3874 10.9387 30.8994 10.416C30.9954 10.32 31.1074 10.272 31.2354 10.272C31.3634 10.272 31.4754 10.32 31.5714 10.416C31.6674 10.512 31.7154 10.624 31.7154 10.752C31.7154 10.8907 31.6674 11.008 31.5714 11.104C30.9847 11.6907 30.2807 12.1493 29.4594 12.48C28.6487 12.8107 27.8167 12.976 26.9634 12.976ZM34.2116 13.152C34.0943 13.152 33.9876 13.1147 33.8916 13.04C33.8063 12.976 33.753 12.88 33.7316 12.752C33.657 12.24 33.593 11.7333 33.5396 11.232C33.497 10.72 33.4756 10.2187 33.4756 9.728C33.4756 8.93867 33.5396 8.17067 33.6676 7.424C33.7956 6.66667 33.993 5.94133 34.2596 5.248C34.5903 4.40533 35.0223 3.67467 35.5556 3.056C36.089 2.42667 36.697 1.936 37.3796 1.584C38.073 1.232 38.8196 1.056 39.6196 1.056C40.4303 1.056 41.1876 1.24267 41.8916 1.616C42.5956 1.98933 43.2143 2.496 43.7476 3.136C44.2916 3.76533 44.713 4.48 45.0116 5.28C45.289 5.96267 45.4916 6.69867 45.6196 7.488C45.7476 8.26667 45.8116 9.06667 45.8116 9.888C45.8116 10.368 45.7903 10.848 45.7476 11.328C45.7156 11.7973 45.6623 12.2667 45.5876 12.736C45.577 12.8853 45.5183 12.992 45.4116 13.056C45.3156 13.12 45.2143 13.152 45.1076 13.152C44.9796 13.152 44.857 13.0987 44.7396 12.992C44.633 12.896 44.5956 12.768 44.6276 12.608C44.681 12.2027 44.7236 11.792 44.7556 11.376C44.7876 10.9493 44.8036 10.528 44.8036 10.112C44.8036 9.29067 44.7396 8.49067 44.6116 7.712C44.4836 6.92267 44.281 6.20267 44.0036 5.552C43.737 4.89067 43.3796 4.29867 42.9316 3.776C42.4836 3.25333 41.9716 2.84267 41.3956 2.544C40.8303 2.23467 40.217 2.08 39.5556 2.08C38.9156 2.08 38.329 2.224 37.7956 2.512C37.2623 2.78933 36.7876 3.17333 36.3716 3.664C35.9663 4.15467 35.6196 4.71467 35.3316 5.344C35.0543 5.96267 34.8463 6.61333 34.7076 7.296H43.4596C43.6303 7.296 43.753 7.34933 43.8276 7.456C43.9023 7.552 43.9396 7.65867 43.9396 7.776C43.9396 7.89333 43.897 8.00533 43.8116 8.112C43.7263 8.208 43.609 8.256 43.4596 8.256H34.5476C34.5263 8.448 34.505 8.66133 34.4836 8.896C34.473 9.13067 34.4676 9.38133 34.4676 9.648C34.4676 10.16 34.489 10.6827 34.5316 11.216C34.5743 11.7493 34.6223 12.208 34.6756 12.592C34.697 12.7733 34.6543 12.912 34.5476 13.008C34.441 13.104 34.329 13.152 34.2116 13.152ZM53.2296 13.328C53.091 13.328 52.9736 13.28 52.8776 13.184C52.7923 13.0987 52.7496 12.9867 52.7496 12.848V10.016C51.4163 9.89867 50.291 9.42933 49.3736 8.608C48.4563 7.78667 47.8163 6.69867 47.4536 5.344C47.379 5.06667 47.3256 4.768 47.2936 4.448C47.2616 4.11733 47.2456 3.78667 47.2456 3.456C47.2456 3.2 47.2563 2.94933 47.2776 2.704C47.299 2.448 47.3256 2.20267 47.3576 1.968C47.379 1.81867 47.4323 1.712 47.5176 1.648C47.6136 1.584 47.715 1.552 47.8216 1.552C47.9816 1.552 48.1096 1.6 48.2056 1.696C48.3016 1.78133 48.339 1.91467 48.3176 2.096C48.2856 2.30933 48.2643 2.528 48.2536 2.752C48.243 2.96533 48.2376 3.17867 48.2376 3.392C48.2376 4.02133 48.3016 4.61867 48.4296 5.184C48.6536 5.99467 48.995 6.69333 49.4536 7.28C49.923 7.86667 50.483 8.32 51.1336 8.64C51.7843 8.94933 52.499 9.104 53.2776 9.104C54.067 9.104 54.7816 8.944 55.4216 8.624C56.0723 8.29333 56.6216 7.83467 57.0696 7.248C57.5283 6.65067 57.859 5.952 58.0616 5.152C58.1256 4.88533 58.1683 4.624 58.1896 4.368C58.2216 4.112 58.2376 3.856 58.2376 3.6C58.2376 3.344 58.227 3.09333 58.2056 2.848C58.1843 2.592 58.1523 2.34133 58.1096 2.096C58.099 1.89333 58.1416 1.75467 58.2376 1.68C58.3443 1.59467 58.4563 1.552 58.5736 1.552C58.6803 1.552 58.7816 1.58933 58.8776 1.664C58.9736 1.728 59.0376 1.824 59.0696 1.952C59.1123 2.21867 59.139 2.49067 59.1496 2.768C59.171 3.03467 59.1816 3.30667 59.1816 3.584C59.1816 3.88267 59.1656 4.18133 59.1336 4.48C59.1123 4.768 59.0696 5.05067 59.0056 5.328C58.675 6.704 58.0403 7.80267 57.1016 8.624C56.1736 9.44533 55.043 9.90933 53.7096 10.016V12.848C53.7096 13.0187 53.6563 13.1413 53.5496 13.216C53.4536 13.2907 53.347 13.328 53.2296 13.328ZM0.991063 36.152C0.852396 36.152 0.735063 36.104 0.639063 36.008C0.553729 35.9227 0.511063 35.8107 0.511063 35.672L0.319063 24.12C0.319063 23.9493 0.372396 23.8267 0.479063 23.752C0.585729 23.6773 0.692396 23.64 0.799063 23.64C0.916396 23.6187 1.02306 23.6507 1.11906 23.736C1.22573 23.8213 1.27906 23.944 1.27906 24.104L1.37506 29.592C1.6844 29.1653 2.12706 28.7227 2.70306 28.264C3.27906 27.8053 3.93506 27.352 4.67106 26.904C5.40706 26.456 6.16973 26.024 6.95906 25.608C7.75906 25.192 8.53773 24.8133 9.29506 24.472C9.3804 24.44 9.45506 24.424 9.51906 24.424C9.71106 24.424 9.84973 24.5147 9.93506 24.696C9.96706 24.7707 9.98306 24.8453 9.98306 24.92C9.98306 25.112 9.8924 25.2507 9.71106 25.336C9.23106 25.5707 8.6764 25.848 8.04706 26.168C7.4284 26.4773 6.7884 26.8133 6.12706 27.176C5.4764 27.5387 4.85773 27.912 4.27106 28.296C3.69506 28.68 3.2044 29.0533 2.79906 29.416C2.39373 29.768 2.1324 30.0933 2.01506 30.392C2.1324 30.6693 2.3884 30.968 2.78306 31.288C3.1884 31.608 3.67906 31.9387 4.25506 32.28C4.83106 32.6107 5.44973 32.936 6.11106 33.256C6.7724 33.5653 7.43373 33.8533 8.09506 34.12C8.7564 34.3867 9.36973 34.616 9.93506 34.808C10.1484 34.9147 10.2551 35.0533 10.2551 35.224C10.2551 35.3093 10.2444 35.368 10.2231 35.4C10.1377 35.6133 9.99373 35.72 9.79106 35.72C9.75906 35.72 9.7004 35.7093 9.61506 35.688C8.91106 35.4213 8.15373 35.1227 7.34306 34.792C6.5324 34.4507 5.7324 34.088 4.94306 33.704C4.1644 33.32 3.4604 32.9253 2.83106 32.52C2.20173 32.104 1.72173 31.688 1.39106 31.272L1.47106 35.656C1.47106 35.816 1.41773 35.9333 1.31106 36.008C1.21506 36.0827 1.1084 36.1307 0.991063 36.152ZM17.3229 36.296C17.2376 36.3067 17.1469 36.312 17.0509 36.312C16.9656 36.312 16.8803 36.312 16.7949 36.312C15.8456 36.312 14.9976 36.1093 14.2509 35.704C13.5043 35.3093 12.9176 34.76 12.4909 34.056C12.0643 33.352 11.8509 32.5467 11.8509 31.64C11.8509 30.7867 12.0163 30.0027 12.3469 29.288C12.6883 28.5627 13.1683 27.96 13.7869 27.48C14.4056 27 15.1363 26.696 15.9789 26.568C16.0963 26.5467 16.2243 26.5307 16.3629 26.52C16.5016 26.5093 16.6403 26.504 16.7789 26.504C17.3549 26.504 17.9523 26.584 18.5709 26.744C19.2003 26.8933 19.7283 27.1067 20.1549 27.384C20.2083 27.2667 20.2936 27.1973 20.4109 27.176C20.5283 27.144 20.6243 27.1387 20.6989 27.16C20.8163 27.1707 20.9069 27.224 20.9709 27.32C21.0349 27.416 21.0669 27.528 21.0669 27.656C21.0563 27.9013 21.0456 28.1413 21.0349 28.376C21.0349 28.6107 21.0349 28.8453 21.0349 29.08C21.0349 30.2747 21.1203 31.336 21.2909 32.264C21.4723 33.192 21.8083 34.0027 22.2989 34.696C22.3629 34.792 22.3949 34.888 22.3949 34.984C22.3949 35.112 22.3416 35.2187 22.2349 35.304C22.1389 35.3893 22.0323 35.432 21.9149 35.432C21.7549 35.432 21.6216 35.3627 21.5149 35.224C21.4083 35.0747 21.3016 34.9093 21.1949 34.728C21.0989 34.5467 21.0189 34.3867 20.9549 34.248C20.5176 34.856 19.9843 35.3253 19.3549 35.656C18.7256 35.9973 18.0483 36.2107 17.3229 36.296ZM17.0029 35.368C17.7283 35.368 18.3949 35.1653 19.0029 34.76C19.6216 34.3547 20.1229 33.8 20.5069 33.096C20.3469 32.4987 20.2296 31.8053 20.1549 31.016C20.0803 30.2267 20.0483 29.4053 20.0589 28.552C19.8456 28.3173 19.5629 28.12 19.2109 27.96C18.8589 27.8 18.4749 27.6773 18.0589 27.592C17.6429 27.5067 17.2323 27.464 16.8269 27.464C16.5603 27.464 16.3096 27.48 16.0749 27.512C15.8403 27.544 15.6216 27.6027 15.4189 27.688C14.6083 27.9867 13.9629 28.488 13.4829 29.192C13.0136 29.8853 12.7789 30.68 12.7789 31.576C12.7789 32.3653 12.9656 33.0427 13.3389 33.608C13.7229 34.1733 14.2349 34.6107 14.8749 34.92C15.5149 35.2187 16.2243 35.368 17.0029 35.368ZM34.3671 35.992C34.2284 35.992 34.1004 35.9493 33.9831 35.864C33.8764 35.7787 33.8231 35.6667 33.8231 35.528C33.8231 35.4853 33.8337 35.432 33.8551 35.368C34.0684 34.6747 34.2337 33.96 34.3511 33.224C34.4791 32.488 34.5431 31.7947 34.5431 31.144C34.5431 30.5573 34.4791 30.0347 34.3511 29.576C34.2337 29.1173 34.0364 28.7547 33.7591 28.488C33.4924 28.2107 33.1244 28.072 32.6551 28.072C32.1004 28.072 31.6684 28.2587 31.3591 28.632C31.0497 28.9947 30.8204 29.5013 30.6711 30.152C30.5324 30.8027 30.4257 31.5547 30.3511 32.408C30.3511 32.568 30.2977 32.6907 30.1911 32.776C30.0844 32.8507 29.9724 32.888 29.8551 32.888C29.7164 32.8667 29.6044 32.808 29.5191 32.712C29.4337 32.616 29.3911 32.4987 29.3911 32.36C29.4124 32.2107 29.4284 32.0667 29.4391 31.928C29.4497 31.7787 29.4551 31.6293 29.4551 31.48C29.4551 30.872 29.3697 30.296 29.1991 29.752C29.0284 29.1973 28.7777 28.7493 28.4471 28.408C28.1271 28.056 27.7324 27.8907 27.2631 27.912C26.8791 27.912 26.5484 28.024 26.2711 28.248C26.0044 28.4613 25.7911 28.744 25.6311 29.096C25.4711 29.448 25.3537 29.8373 25.2791 30.264C25.2897 30.744 25.3164 31.2773 25.3591 31.864C25.4124 32.4507 25.4764 33.0373 25.5511 33.624C25.6257 34.2107 25.7057 34.744 25.7911 35.224C25.8231 35.384 25.7911 35.512 25.6951 35.608C25.6097 35.704 25.5137 35.7627 25.4071 35.784C25.2684 35.7947 25.1457 35.768 25.0391 35.704C24.9431 35.6507 24.8791 35.5493 24.8471 35.4C24.6551 34.2907 24.5164 33.2507 24.4311 32.28C24.3564 31.2987 24.3191 30.2587 24.3191 29.16C24.3191 28.8613 24.3191 28.5573 24.3191 28.248C24.3297 27.9387 24.3404 27.6187 24.3511 27.288C24.3724 27.1067 24.4364 26.984 24.5431 26.92C24.6497 26.8453 24.7564 26.8187 24.8631 26.84C24.9911 26.84 25.1031 26.888 25.1991 26.984C25.2951 27.0693 25.3324 27.1867 25.3111 27.336L25.2951 27.832C25.5831 27.5227 25.8871 27.304 26.2071 27.176C26.5377 27.048 26.8844 26.984 27.2471 26.984C27.9831 26.984 28.5697 27.176 29.0071 27.56C29.4551 27.944 29.7857 28.4453 29.9991 29.064C30.2444 28.4667 30.5751 27.9973 30.9911 27.656C31.4177 27.304 31.9404 27.128 32.5591 27.128C33.2737 27.128 33.8497 27.32 34.2871 27.704C34.7244 28.088 35.0391 28.6 35.2311 29.24C35.4337 29.88 35.5351 30.5893 35.5351 31.368C35.5351 32.0507 35.4657 32.76 35.3271 33.496C35.1991 34.232 35.0177 34.9467 34.7831 35.64C34.6977 35.8747 34.5591 35.992 34.3671 35.992ZM38.8683 38.008C38.7616 38.008 38.6603 37.9707 38.5643 37.896C38.4683 37.8213 38.4203 37.7147 38.4203 37.576C38.335 36.3493 38.2603 35.1813 38.1963 34.072C38.1323 32.952 38.1003 31.8853 38.1003 30.872C38.1003 30.2107 38.1163 29.5707 38.1483 28.952C38.1803 28.3227 38.2336 27.7147 38.3083 27.128C38.3296 26.9573 38.3936 26.84 38.5003 26.776C38.6176 26.712 38.7296 26.6907 38.8363 26.712C38.975 26.7227 39.0816 26.776 39.1563 26.872C39.2416 26.968 39.2736 27.0907 39.2523 27.24C39.1883 27.7307 39.1403 28.376 39.1083 29.176C39.0763 29.976 39.0603 30.7867 39.0603 31.608C39.0603 32.184 39.0656 32.7333 39.0763 33.256C39.0976 33.7787 39.1296 34.216 39.1723 34.568C39.6843 34.7387 40.1963 34.8773 40.7083 34.984C41.2203 35.0907 41.7216 35.144 42.2123 35.144C43.0123 35.144 43.7323 34.9947 44.3723 34.696C45.023 34.3867 45.535 33.9493 45.9083 33.384C46.2816 32.808 46.4683 32.1253 46.4683 31.336C46.4683 30.5787 46.2976 29.9173 45.9563 29.352C45.615 28.7867 45.151 28.3493 44.5643 28.04C43.9883 27.72 43.3376 27.56 42.6123 27.56C42.1856 27.56 41.7536 27.6187 41.3163 27.736C40.879 27.8427 40.4683 27.9867 40.0843 28.168C40.0096 28.2107 39.9243 28.232 39.8283 28.232C39.647 28.232 39.519 28.1467 39.4443 27.976C39.4016 27.9013 39.3803 27.8213 39.3803 27.736C39.3803 27.576 39.4656 27.4373 39.6363 27.32C40.0416 27.096 40.511 26.9307 41.0443 26.824C41.5776 26.7067 42.1163 26.648 42.6603 26.648C43.6096 26.648 44.447 26.856 45.1723 27.272C45.8976 27.6773 46.463 28.232 46.8683 28.936C47.2843 29.64 47.4923 30.44 47.4923 31.336C47.4923 32.3173 47.247 33.1653 46.7563 33.88C46.2656 34.5947 45.599 35.144 44.7563 35.528C43.9243 35.912 42.991 36.104 41.9563 36.104C41.0176 36.104 40.111 35.9333 39.2363 35.592L39.3643 37.496C39.3856 37.6773 39.3376 37.8053 39.2203 37.88C39.103 37.9653 38.9856 38.008 38.8683 38.008ZM51.0448 30.2C50.3621 30.2 49.8128 29.9867 49.3968 29.56C48.9808 29.1333 48.7728 28.6107 48.7728 27.992C48.7728 27.3307 48.9808 26.7973 49.3968 26.392C49.8128 25.9867 50.3621 25.784 51.0448 25.784C51.4928 25.784 51.8875 25.8853 52.2288 26.088C52.5701 26.28 52.8315 26.5413 53.0128 26.872C53.2048 27.2027 53.3008 27.576 53.3008 27.992C53.3008 28.408 53.2048 28.7813 53.0128 29.112C52.8208 29.4427 52.5541 29.7093 52.2128 29.912C51.8715 30.104 51.4821 30.2 51.0448 30.2ZM51.0448 29.24C51.4715 29.24 51.7968 29.1227 52.0208 28.888C52.2448 28.6533 52.3568 28.3547 52.3568 27.992C52.3568 27.5973 52.2395 27.2933 52.0048 27.08C51.7701 26.856 51.4501 26.744 51.0448 26.744C50.6181 26.744 50.2928 26.8613 50.0688 27.096C49.8448 27.32 49.7328 27.6187 49.7328 27.992C49.7328 28.376 49.8501 28.68 50.0848 28.904C50.3195 29.128 50.6395 29.24 51.0448 29.24ZM51.0448 36.088C50.8741 36.088 50.7515 36.04 50.6768 35.944C50.6021 35.8587 50.5595 35.7573 50.5488 35.64C50.5168 34.8507 50.5008 34.04 50.5008 33.208C50.5008 32.504 50.5168 31.848 50.5488 31.24C50.5595 31.0693 50.6181 30.952 50.7248 30.888C50.8421 30.8133 50.9541 30.7867 51.0608 30.808C51.1888 30.808 51.2955 30.856 51.3808 30.952C51.4661 31.048 51.5088 31.1707 51.5088 31.32C51.4875 31.4267 51.4715 31.656 51.4608 32.008C51.4501 32.36 51.4448 32.7493 51.4448 33.176C51.4448 33.5173 51.4448 33.8587 51.4448 34.2C51.4555 34.5307 51.4661 34.8187 51.4768 35.064C51.4875 35.3093 51.4981 35.4747 51.5088 35.56C51.5088 35.7413 51.4608 35.8747 51.3648 35.96C51.2688 36.0453 51.1621 36.088 51.0448 36.088ZM63.7693 36.184C63.6306 36.184 63.508 36.136 63.4013 36.04C63.3053 35.9547 63.2573 35.8427 63.2573 35.704C63.2573 35.6613 63.268 35.608 63.2893 35.544C63.4706 34.9787 63.6146 34.3867 63.7213 33.768C63.8386 33.1387 63.8973 32.536 63.8973 31.96C63.8973 30.8187 63.6573 29.912 63.1773 29.24C62.708 28.5573 61.9613 28.1787 60.9373 28.104C60.1693 28.072 59.508 28.264 58.9533 28.68C58.3986 29.096 57.9346 29.6453 57.5613 30.328C57.2306 30.9573 56.98 31.672 56.8093 32.472C56.6493 33.272 56.5693 34.0507 56.5693 34.808C56.5693 34.9147 56.5693 35.0213 56.5693 35.128C56.5693 35.2453 56.5746 35.3573 56.5853 35.464C56.5853 35.656 56.5266 35.7893 56.4093 35.864C56.3026 35.9493 56.1906 35.992 56.0733 35.992C55.8066 35.992 55.6573 35.8373 55.6253 35.528C55.5506 34.856 55.4813 34.1093 55.4173 33.288C55.364 32.456 55.316 31.624 55.2733 30.792C55.2413 29.9493 55.2253 29.176 55.2253 28.472C55.2253 28.2693 55.2253 28.0773 55.2253 27.896C55.2253 27.7147 55.2306 27.544 55.2413 27.384C55.2413 27.2027 55.2946 27.0747 55.4013 27C55.5186 26.9253 55.6306 26.8987 55.7373 26.92C55.8653 26.92 55.972 26.9627 56.0573 27.048C56.1533 27.1333 56.2013 27.2507 56.2013 27.4C56.212 27.816 56.2173 28.1787 56.2173 28.488C56.2173 28.7973 56.2173 29.1173 56.2173 29.448C56.228 29.7787 56.2333 30.2 56.2333 30.712C56.4573 29.9867 56.788 29.3467 57.2253 28.792C57.6733 28.2373 58.196 27.8053 58.7933 27.496C59.3906 27.176 60.0306 27.016 60.7133 27.016C61.5986 27.016 62.3506 27.2133 62.9693 27.608C63.5986 28.0027 64.0786 28.5573 64.4093 29.272C64.74 29.976 64.9053 30.792 64.9053 31.72C64.9053 32.4347 64.8413 33.128 64.7133 33.8C64.5853 34.472 64.4146 35.1547 64.2013 35.848C64.1693 35.9653 64.1106 36.0507 64.0253 36.104C63.9506 36.1573 63.8653 36.184 63.7693 36.184ZM72.9637 38.104C72.505 38.104 72.1157 37.9493 71.7957 37.64C71.4757 37.3307 71.3264 36.9413 71.3477 36.472C71.4117 36.0133 71.6144 35.6453 71.9557 35.368C72.3077 35.0907 72.729 34.8773 73.2197 34.728C73.7104 34.568 74.1957 34.4453 74.6757 34.36C74.7077 34.04 74.729 33.832 74.7397 33.736C74.761 33.6293 74.777 33.5493 74.7877 33.496C74.2757 33.912 73.689 34.2373 73.0277 34.472C72.3664 34.7067 71.705 34.824 71.0437 34.824C70.4144 34.824 69.8277 34.712 69.2837 34.488C68.4837 34.1467 67.8704 33.624 67.4437 32.92C67.0277 32.2053 66.8197 31.4427 66.8197 30.632C66.8197 29.7573 67.0277 28.984 67.4437 28.312C67.8704 27.64 68.4464 27.112 69.1717 26.728C69.897 26.344 70.7077 26.152 71.6037 26.152C72.2437 26.152 72.8464 26.2587 73.4117 26.472C73.977 26.6853 74.4677 27.0107 74.8837 27.448C75.065 27.448 75.1877 27.4853 75.2517 27.56C75.3264 27.6347 75.3744 27.7307 75.3957 27.848C75.513 28.3813 75.6037 29.0373 75.6677 29.816C75.7424 30.5947 75.7797 31.3627 75.7797 32.12C75.7797 32.536 75.769 32.9307 75.7477 33.304C75.7264 33.6773 75.689 34.008 75.6357 34.296C76.1477 34.296 76.377 34.472 76.3237 34.824C76.3237 34.9413 76.2757 35.0427 76.1797 35.128C76.0944 35.2133 75.9717 35.256 75.8117 35.256C75.7904 35.2453 75.7584 35.24 75.7157 35.24C75.673 35.24 75.5877 35.24 75.4597 35.24C75.3424 35.7627 75.1824 36.2373 74.9797 36.664C74.777 37.1013 74.5104 37.448 74.1797 37.704C73.8597 37.9707 73.4544 38.104 72.9637 38.104ZM69.9717 33.704C70.3024 33.8107 70.665 33.864 71.0597 33.864C71.7637 33.864 72.4624 33.6987 73.1557 33.368C73.849 33.0373 74.4144 32.5947 74.8517 32.04C74.8517 31.8693 74.841 31.624 74.8197 31.304C74.7984 30.984 74.7664 30.6427 74.7237 30.28C74.6917 29.9067 74.6544 29.5707 74.6117 29.272C74.5797 28.9627 74.553 28.7387 74.5317 28.6C74.3504 28.2693 74.0837 27.992 73.7317 27.768C73.3797 27.544 72.9904 27.3787 72.5637 27.272C72.1477 27.1547 71.737 27.096 71.3317 27.096C70.617 27.1173 69.9984 27.288 69.4757 27.608C68.953 27.9173 68.5477 28.3387 68.2597 28.872C67.9824 29.3947 67.8437 29.9973 67.8437 30.68C67.8437 31.3947 68.025 32.024 68.3877 32.568C68.761 33.112 69.289 33.4907 69.9717 33.704ZM72.9957 37.176C73.2624 37.176 73.4864 37.08 73.6677 36.888C73.8597 36.696 74.0197 36.4613 74.1477 36.184C74.2757 35.9067 74.377 35.6347 74.4517 35.368C74.153 35.432 73.8384 35.5173 73.5077 35.624C73.177 35.7307 72.8944 35.8587 72.6597 36.008C72.4357 36.168 72.3237 36.3653 72.3237 36.6C72.3237 36.76 72.3877 36.8933 72.5157 37C72.6544 37.1173 72.8144 37.176 72.9957 37.176Z" fill="white"/>
</svg>
